{"glyphs":{"0":{"ha":550,"x_min":0,"x_max":0,"o":"m 43 739 b 275 983 43 896 125 983 b 507 739 425 983 507 896 l 507 233 b 275 -11 507 76 425 -11 b 43 233 125 -11 43 76 m 196 224 b 275 128 196 153 226 128 b 354 224 324 128 354 153 l 354 749 b 275 844 354 819 324 844 b 196 749 226 844 196 819 "},"1":{"ha":550,"x_min":0,"x_max":0,"o":"m 150 850 b 269 886 210 850 246 864 b 318 972 293 908 307 939 l 421 972 l 421 0 l 268 0 l 268 742 l 150 742 "},"2":{"ha":550,"x_min":0,"x_max":0,"o":"m 358 733 b 279 844 358 821 328 844 b 200 749 231 844 200 819 l 200 644 l 56 644 l 56 739 b 283 983 56 896 133 983 b 511 739 433 983 511 896 b 433 489 511 638 478 556 b 360 394 410 454 386 424 b 229 238 307 338 258 286 b 207 160 214 213 207 186 b 208 139 207 150 207 143 l 497 139 l 497 0 l 56 0 l 56 119 b 135 344 56 214 89 283 b 207 429 157 374 181 403 b 336 610 258 482 307 539 b 358 733 351 644 358 686 "},"3":{"ha":550,"x_min":0,"x_max":0,"o":"m 350 733 b 271 844 350 821 319 844 b 192 749 222 844 192 819 l 192 686 l 47 686 l 47 739 b 275 983 47 896 125 983 b 503 739 425 983 503 896 l 503 714 b 396 514 503 610 467 543 b 503 310 474 481 503 410 l 503 233 b 275 -11 503 76 425 -11 b 47 233 125 -11 47 76 l 47 314 l 192 314 l 192 224 b 271 128 192 153 222 128 b 350 238 319 128 350 150 l 350 314 b 250 438 350 404 321 438 l 199 438 l 199 576 l 258 576 b 350 679 315 576 350 601 "},"4":{"ha":550,"x_min":0,"x_max":0,"o":"m 19 315 l 297 972 l 464 972 l 464 315 l 536 315 l 536 176 l 464 176 l 464 0 l 311 0 l 311 176 l 19 176 m 311 315 l 311 675 l 160 315 "},"5":{"ha":550,"x_min":0,"x_max":0,"o":"m 193 314 l 193 224 b 272 129 193 153 224 129 b 351 224 321 129 351 153 l 351 438 b 272 533 351 508 321 533 b 193 438 224 533 193 508 l 193 408 l 49 408 l 76 972 l 479 972 l 479 833 l 214 833 l 201 601 b 335 672 231 649 275 672 b 504 450 447 672 504 594 l 504 233 b 276 -11 504 76 426 -11 b 49 233 126 -11 49 76 l 49 314 "},"6":{"ha":550,"x_min":0,"x_max":0,"o":"m 46 731 b 279 983 46 896 119 983 b 507 739 429 983 507 896 l 507 714 l 363 714 l 363 749 b 283 844 363 819 332 844 b 199 725 229 844 199 818 l 199 547 b 340 633 225 604 272 633 b 510 411 453 633 510 556 l 510 233 b 278 -11 510 76 428 -11 b 46 233 128 -11 46 76 m 278 494 b 199 399 229 494 199 469 l 199 224 b 278 129 199 153 229 129 b 357 224 326 129 357 153 l 357 399 b 278 494 357 469 326 494 "},"7":{"ha":550,"x_min":0,"x_max":0,"o":"m 504 972 l 504 839 l 279 0 l 126 0 l 350 833 l 46 833 l 46 972 "},"8":{"ha":550,"x_min":0,"x_max":0,"o":"m 514 233 b 275 -11 514 76 431 -11 b 36 233 119 -11 36 76 l 36 310 b 131 513 36 404 64 475 b 36 708 68 547 36 613 l 36 739 b 275 983 36 896 119 983 b 514 739 431 983 514 896 l 514 708 b 419 513 514 613 482 547 b 514 310 486 475 514 404 m 189 679 b 275 576 189 601 225 576 b 361 679 324 576 361 601 l 361 733 b 275 844 361 821 324 844 b 189 733 226 844 189 821 m 189 238 b 275 128 189 150 226 128 b 361 238 324 128 360 150 l 361 328 b 275 438 361 406 329 438 b 189 328 221 438 189 406 "},"9":{"ha":550,"x_min":0,"x_max":0,"o":"m 504 242 b 271 -11 504 76 431 -11 b 43 233 121 -11 43 76 l 43 258 l 188 258 l 188 224 b 267 128 188 153 218 128 b 351 247 321 128 351 154 l 351 425 b 210 339 325 368 278 339 b 40 561 97 339 40 417 l 40 739 b 272 983 40 896 122 983 b 504 739 422 983 504 896 m 272 478 b 351 574 321 478 351 503 l 351 749 b 272 843 351 819 321 843 b 193 749 224 843 193 819 l 193 574 b 272 478 193 503 224 478 "},"\u0000":{"ha":0,"x_min":0,"x_max":0,"o":""},"\r":{"ha":215,"x_min":0,"x_max":0,"o":""}," ":{"ha":215,"x_min":0,"x_max":0,"o":""},"#":{"ha":569,"x_min":0,"x_max":0,"o":"m 304 278 l 214 278 l 185 0 l 60 0 l 89 278 l 21 278 l 32 386 l 100 386 l 126 640 l 57 640 l 68 749 l 138 749 l 161 972 l 286 972 l 263 749 l 353 749 l 376 972 l 501 972 l 478 749 l 549 749 l 538 640 l 467 640 l 440 386 l 511 386 l 500 278 l 429 278 l 400 0 l 275 0 m 225 386 l 315 386 l 342 640 l 251 640 "},"$":{"ha":550,"x_min":0,"x_max":0,"o":"m 51 725 b 213 963 51 857 106 939 l 213 1035 l 338 1035 l 338 963 b 501 725 447 940 501 858 l 501 694 l 357 694 l 357 735 b 281 831 357 806 329 831 b 204 735 232 831 204 806 b 282 582 204 668 238 624 b 354 521 304 561 328 540 b 481 367 404 481 451 432 b 503 247 496 333 503 293 b 338 8 503 114 447 31 l 338 -62 l 213 -62 l 213 8 b 47 247 101 31 47 114 l 47 314 l 192 314 l 192 238 b 271 143 192 167 222 143 b 350 238 319 143 350 167 b 272 392 350 304 317 350 b 201 453 250 413 226 432 b 74 607 150 492 103 540 b 51 725 58 639 51 679 "},"%":{"ha":871,"x_min":0,"x_max":0,"o":"m 47 824 b 194 979 47 924 99 979 b 342 824 290 979 342 924 l 342 504 b 194 349 342 404 290 349 b 47 504 99 349 47 404 m 578 972 l 668 972 l 285 0 l 194 0 m 144 497 b 194 436 144 457 161 436 b 244 497 226 436 244 454 l 244 831 b 194 892 244 874 226 892 b 144 831 161 892 144 871 m 529 468 b 676 624 529 568 581 624 b 824 468 772 624 824 568 l 824 149 b 676 -7 824 49 772 -7 b 529 149 581 -7 529 49 m 626 142 b 676 81 626 101 643 81 b 726 142 708 81 726 99 l 726 475 b 676 536 726 518 708 536 b 626 475 643 536 626 515 "},"&":{"ha":575,"x_min":0,"x_max":0,"o":"m 57 310 b 163 514 57 410 86 481 b 57 714 92 543 57 610 l 57 732 b 285 972 57 889 131 972 l 460 972 l 460 833 l 288 833 b 210 739 239 833 210 810 l 210 679 b 301 576 210 601 244 576 l 368 576 l 368 685 l 521 685 l 521 576 l 561 576 l 561 438 l 521 438 l 521 118 b 538 0 521 69 522 38 l 382 0 b 368 76 375 21 372 33 b 226 -11 342 18 294 -11 b 57 211 114 -11 57 67 m 210 224 b 289 128 210 153 240 128 b 368 213 335 128 364 151 l 368 438 l 310 438 b 210 314 239 438 210 404 "},"'":{"ha":250,"x_min":0,"x_max":0,"o":"m 51 972 l 199 972 l 176 686 l 72 686 "},"(":{"ha":349,"x_min":0,"x_max":0,"o":"m 326 972 l 326 847 l 289 847 b 218 760 240 847 218 831 l 218 213 b 289 125 218 142 240 125 l 326 125 l 326 0 l 279 0 b 115 49 203 0 149 14 b 65 213 81 82 65 135 l 65 760 b 115 925 65 838 81 890 b 279 972 149 958 203 972 "},")":{"ha":349,"x_min":0,"x_max":0,"o":"m 69 972 b 283 760 221 972 283 915 l 283 213 b 69 0 283 57 221 0 l 22 0 l 22 125 l 60 125 b 131 213 108 125 131 142 l 131 760 b 60 847 131 831 108 847 l 22 847 l 22 972 "},"*":{"ha":550,"x_min":0,"x_max":0,"o":"m 249 743 l 213 972 l 338 972 l 301 743 l 508 847 l 547 729 l 319 690 l 482 528 l 382 454 l 275 660 l 168 454 l 68 528 l 231 690 l 3 729 l 42 847 "},"+":{"ha":550,"x_min":0,"x_max":0,"o":"m 329 540 l 515 540 l 515 432 l 329 432 l 329 242 l 221 242 l 221 432 l 35 432 l 35 540 l 221 540 l 221 728 l 329 728 "},",":{"ha":258,"x_min":0,"x_max":0,"o":"m 56 0 l 56 147 l 203 147 l 203 15 l 136 -139 l 74 -139 l 114 0 "},"-":{"ha":375,"x_min":0,"x_max":0,"o":"m 49 556 l 326 556 l 326 417 l 49 417 "},".":{"ha":258,"x_min":0,"x_max":0,"o":"m 203 147 l 203 0 l 56 0 l 56 147 "},"/":{"ha":529,"x_min":0,"x_max":0,"o":"m 390 972 l 522 972 l 139 0 l 7 0 "},":":{"ha":258,"x_min":0,"x_max":0,"o":"m 203 676 l 203 529 l 56 529 l 56 676 m 203 147 l 203 0 l 56 0 l 56 147 "},";":{"ha":258,"x_min":0,"x_max":0,"o":"m 203 676 l 203 529 l 56 529 l 56 676 m 56 0 l 56 147 l 203 147 l 203 15 l 136 -139 l 74 -139 l 114 0 "},"<":{"ha":550,"x_min":0,"x_max":0,"o":"m 42 432 l 42 540 l 494 707 l 494 597 l 183 486 l 494 375 l 494 265 "},"=":{"ha":550,"x_min":0,"x_max":0,"o":"m 501 653 l 501 544 l 49 544 l 49 653 m 501 428 l 501 319 l 49 319 l 49 428 "},">":{"ha":550,"x_min":0,"x_max":0,"o":"m 56 265 l 56 375 l 367 486 l 56 597 l 56 707 l 508 540 l 508 432 "},"?":{"ha":500,"x_min":0,"x_max":0,"o":"m 167 215 b 158 275 161 232 158 251 b 201 439 158 346 178 394 b 242 501 214 460 226 481 b 313 644 271 540 296 586 b 325 749 321 674 325 708 b 249 844 325 819 297 844 b 172 749 200 844 172 819 l 172 643 l 28 643 l 28 739 b 253 983 28 896 103 983 b 478 739 403 983 478 896 b 432 544 478 654 458 594 b 388 476 418 519 403 497 b 311 349 356 435 328 394 b 297 269 301 325 297 299 b 303 215 297 249 299 231 m 307 147 l 307 0 l 160 0 l 160 147 "},"@":{"ha":957,"x_min":0,"x_max":0,"o":"m 661 176 b 539 268 590 176 544 203 b 300 243 482 151 342 169 b 279 399 279 279 272 331 l 294 539 b 464 744 310 676 365 749 b 578 658 521 743 560 715 l 586 739 l 719 739 l 678 338 b 706 303 675 314 685 303 b 790 407 744 303 772 346 b 817 617 808 468 817 546 b 751 829 817 704 796 778 b 540 910 706 879 636 910 b 260 771 417 910 322 860 b 164 396 197 682 164 553 b 488 33 164 172 267 33 b 633 53 539 33 588 39 b 775 128 679 67 726 90 l 764 -6 b 479 -83 671 -67 583 -83 b 139 53 324 -83 211 -33 b 33 403 67 139 33 258 b 161 844 33 575 76 731 b 546 1028 246 958 374 1028 b 849 908 692 1028 789 982 b 932 619 908 835 932 732 b 838 269 932 449 892 338 b 661 176 782 201 715 176 m 414 406 b 474 314 407 340 431 315 b 551 401 517 313 544 336 l 565 533 b 506 611 571 588 543 611 b 426 524 463 613 433 589 "},"A":{"ha":565,"x_min":0,"x_max":0,"o":"m 550 0 l 396 0 l 369 176 l 182 176 l 156 0 l 15 0 l 171 972 l 394 972 m 201 308 l 349 308 l 275 800 "},"B":{"ha":564,"x_min":0,"x_max":0,"o":"m 286 972 b 513 749 446 972 513 899 l 513 714 b 414 518 513 614 482 550 b 528 310 497 486 528 414 l 528 231 b 296 0 528 81 450 0 l 56 0 l 56 972 m 208 833 l 208 576 l 268 576 b 360 679 325 576 360 601 l 360 733 b 282 833 360 804 336 833 m 208 438 l 208 139 l 296 139 b 375 235 347 139 375 163 l 375 319 b 276 438 375 410 347 438 "},"C":{"ha":536,"x_min":0,"x_max":0,"o":"m 499 363 l 499 233 b 271 -11 499 76 421 -11 b 43 233 121 -11 43 76 l 43 739 b 271 983 43 896 121 983 b 499 739 421 983 499 896 l 499 644 l 354 644 l 354 749 b 275 844 354 819 324 844 b 196 749 226 844 196 819 l 196 224 b 275 129 196 153 226 129 b 354 224 324 129 354 153 l 354 363 "},"D":{"ha":567,"x_min":0,"x_max":0,"o":"m 56 972 l 297 972 b 525 732 451 972 525 889 l 525 240 b 297 0 525 83 451 0 l 56 0 m 208 833 l 208 139 l 294 139 b 372 233 343 139 372 163 l 372 739 b 294 833 372 810 343 833 "},"E":{"ha":511,"x_min":0,"x_max":0,"o":"m 208 563 l 418 563 l 418 424 l 208 424 l 208 139 l 472 139 l 472 0 l 56 0 l 56 972 l 472 972 l 472 833 l 208 833 "},"F":{"ha":478,"x_min":0,"x_max":0,"o":"m 208 540 l 406 540 l 406 401 l 208 401 l 208 0 l 56 0 l 56 972 l 460 972 l 460 833 l 208 833 "},"G":{"ha":542,"x_min":0,"x_max":0,"o":"m 285 542 l 499 542 l 499 233 b 271 -11 499 76 421 -11 b 43 233 121 -11 43 76 l 43 739 b 271 983 43 896 121 983 b 499 739 421 983 499 896 l 499 644 l 354 644 l 354 749 b 275 844 354 819 324 844 b 196 749 226 844 196 819 l 196 224 b 275 129 196 153 226 129 b 354 224 324 129 354 153 l 354 403 l 285 403 "},"H":{"ha":593,"x_min":0,"x_max":0,"o":"m 208 0 l 56 0 l 56 972 l 208 972 l 208 556 l 382 556 l 382 972 l 538 972 l 538 0 l 382 0 l 382 417 l 208 417 "},"I":{"ha":264,"x_min":0,"x_max":0,"o":"m 56 972 l 208 972 l 208 0 l 56 0 "},"J":{"ha":356,"x_min":0,"x_max":0,"o":"m 14 139 b 40 138 22 138 31 138 l 67 138 b 154 231 115 138 154 154 l 154 972 l 307 972 l 307 242 b 240 47 307 143 281 83 b 88 -3 200 11 144 -3 l 50 -3 b 14 0 39 -3 26 -1 "},"K":{"ha":575,"x_min":0,"x_max":0,"o":"m 256 388 l 208 299 l 208 0 l 56 0 l 56 972 l 208 972 l 208 549 l 408 972 l 561 972 l 349 539 l 561 0 l 404 0 "},"L":{"ha":471,"x_min":0,"x_max":0,"o":"m 56 972 l 208 972 l 208 139 l 460 139 l 460 0 l 56 0 "},"M":{"ha":751,"x_min":0,"x_max":0,"o":"m 379 282 l 483 972 l 696 972 l 696 0 l 551 0 l 551 697 l 446 0 l 301 0 l 188 688 l 188 0 l 54 0 l 54 972 l 267 972 "},"N":{"ha":593,"x_min":0,"x_max":0,"o":"m 192 704 l 192 0 l 54 0 l 54 972 l 246 972 l 403 390 l 403 972 l 539 972 l 539 0 l 382 0 "},"O":{"ha":550,"x_min":0,"x_max":0,"o":"m 43 739 b 275 983 43 896 125 983 b 507 739 425 983 507 896 l 507 233 b 275 -11 507 76 425 -11 b 43 233 125 -11 43 76 m 196 224 b 275 128 196 153 226 128 b 354 224 324 128 354 153 l 354 749 b 275 844 354 819 324 844 b 196 749 226 844 196 819 "},"P":{"ha":524,"x_min":0,"x_max":0,"o":"m 281 972 b 508 732 435 972 508 889 l 508 606 b 281 365 508 449 435 365 l 208 365 l 208 0 l 56 0 l 56 972 m 208 833 l 208 504 l 281 504 b 356 596 329 504 356 525 l 356 742 b 281 833 356 813 329 833 "},"Q":{"ha":550,"x_min":0,"x_max":0,"o":"m 43 739 b 275 983 43 896 125 983 b 507 739 425 983 507 896 l 507 233 b 478 97 507 179 497 133 b 521 76 485 79 494 76 l 535 76 l 535 -60 l 514 -60 b 382 7 446 -60 403 -36 b 275 -11 350 -4 315 -11 b 43 233 125 -11 43 76 m 196 224 b 275 128 196 153 226 128 b 354 224 324 128 354 153 l 354 749 b 275 844 354 819 324 844 b 196 749 226 844 196 819 "},"R":{"ha":558,"x_min":0,"x_max":0,"o":"m 375 0 b 369 18 374 7 371 13 b 363 71 365 29 363 44 b 361 119 361 83 361 100 l 361 272 b 261 396 361 363 332 396 l 208 396 l 208 0 l 56 0 l 56 972 l 286 972 b 513 749 446 972 513 899 l 513 672 b 413 475 513 572 479 507 b 514 268 490 443 514 369 l 514 118 b 531 0 514 69 515 38 m 208 833 l 208 535 l 268 535 b 360 638 325 535 360 560 l 360 733 b 282 833 360 804 336 833 "},"S":{"ha":519,"x_min":0,"x_max":0,"o":"m 36 739 b 261 983 36 896 111 983 b 486 739 411 983 486 896 l 486 708 l 342 708 l 342 749 b 265 844 342 819 314 844 b 189 749 217 844 189 819 b 267 589 189 682 222 633 b 339 521 289 565 313 543 b 465 354 389 475 436 422 b 488 233 481 319 488 279 b 260 -11 488 76 410 -11 b 32 233 110 -11 32 76 l 32 293 l 176 293 l 176 224 b 256 129 176 153 207 129 b 335 224 304 129 335 153 b 257 385 335 290 301 339 b 186 453 235 407 211 429 b 58 618 135 497 88 550 b 36 739 43 653 36 693 "},"T":{"ha":494,"x_min":0,"x_max":0,"o":"m 11 972 l 483 972 l 483 833 l 324 833 l 324 0 l 171 0 l 171 833 l 11 833 "},"U":{"ha":553,"x_min":0,"x_max":0,"o":"m 201 972 l 201 222 b 281 128 201 151 232 128 b 360 222 329 128 360 151 l 360 972 l 504 972 l 504 232 b 276 -12 504 75 426 -12 b 49 232 126 -12 49 75 l 49 972 "},"V":{"ha":558,"x_min":0,"x_max":0,"o":"m 286 179 l 403 972 l 543 972 l 393 0 l 165 0 l 15 972 l 169 972 "},"W":{"ha":782,"x_min":0,"x_max":0,"o":"m 394 518 l 339 0 l 129 0 l 21 972 l 169 972 l 251 206 l 325 972 l 472 972 l 549 200 l 628 972 l 761 972 l 653 0 l 450 0 "},"X":{"ha":597,"x_min":0,"x_max":0,"o":"m 565 972 l 406 500 l 576 0 l 415 0 l 290 385 l 164 0 l 21 0 l 192 500 l 32 972 l 190 972 l 306 614 l 424 972 "},"Y":{"ha":550,"x_min":0,"x_max":0,"o":"m 199 322 l 6 972 l 165 972 l 282 529 l 399 972 l 544 972 l 351 322 l 351 0 l 199 0 "},"Z":{"ha":514,"x_min":0,"x_max":0,"o":"m 479 972 l 479 836 l 189 139 l 479 139 l 479 0 l 32 0 l 32 136 l 322 833 l 46 833 l 46 972 "},"[":{"ha":349,"x_min":0,"x_max":0,"o":"m 65 972 l 318 972 l 318 847 l 218 847 l 218 125 l 318 125 l 318 0 l 65 0 "},"\\":{"ha":529,"x_min":0,"x_max":0,"o":"m 522 0 l 390 0 l 7 972 l 139 972 "},"]":{"ha":349,"x_min":0,"x_max":0,"o":"m 283 0 l 31 0 l 31 125 l 131 125 l 131 847 l 31 847 l 31 972 l 283 972 "},"^":{"ha":550,"x_min":0,"x_max":0,"o":"m 221 972 l 329 972 l 522 542 l 400 542 l 275 833 l 150 542 l 28 542 "},"_":{"ha":694,"x_min":0,"x_max":0,"o":"m 0 -14 l 694 -14 l 694 -125 l 0 -125 "},"`":{"ha":347,"x_min":0,"x_max":0,"o":"m 218 1178 l 313 1024 l 203 1024 l 61 1178 "},"a":{"ha":565,"x_min":0,"x_max":0,"o":"m 550 0 l 396 0 l 369 176 l 182 176 l 156 0 l 15 0 l 171 972 l 394 972 m 201 308 l 349 308 l 275 800 "},"b":{"ha":564,"x_min":0,"x_max":0,"o":"m 286 972 b 513 749 446 972 513 899 l 513 714 b 414 518 513 614 482 550 b 528 310 497 486 528 414 l 528 231 b 296 0 528 81 450 0 l 56 0 l 56 972 m 208 833 l 208 576 l 268 576 b 360 679 325 576 360 601 l 360 733 b 282 833 360 804 336 833 m 208 438 l 208 139 l 296 139 b 375 235 347 139 375 163 l 375 319 b 276 438 375 410 347 438 "},"c":{"ha":536,"x_min":0,"x_max":0,"o":"m 499 363 l 499 233 b 271 -11 499 76 421 -11 b 43 233 121 -11 43 76 l 43 739 b 271 983 43 896 121 983 b 499 739 421 983 499 896 l 499 644 l 354 644 l 354 749 b 275 844 354 819 324 844 b 196 749 226 844 196 819 l 196 224 b 275 129 196 153 226 129 b 354 224 324 129 354 153 l 354 363 "},"d":{"ha":567,"x_min":0,"x_max":0,"o":"m 56 972 l 297 972 b 525 732 451 972 525 889 l 525 240 b 297 0 525 83 451 0 l 56 0 m 208 833 l 208 139 l 294 139 b 372 233 343 139 372 163 l 372 739 b 294 833 372 810 343 833 "},"e":{"ha":511,"x_min":0,"x_max":0,"o":"m 208 563 l 418 563 l 418 424 l 208 424 l 208 139 l 472 139 l 472 0 l 56 0 l 56 972 l 472 972 l 472 833 l 208 833 "},"f":{"ha":478,"x_min":0,"x_max":0,"o":"m 208 540 l 406 540 l 406 401 l 208 401 l 208 0 l 56 0 l 56 972 l 460 972 l 460 833 l 208 833 "},"g":{"ha":542,"x_min":0,"x_max":0,"o":"m 285 542 l 499 542 l 499 233 b 271 -11 499 76 421 -11 b 43 233 121 -11 43 76 l 43 739 b 271 983 43 896 121 983 b 499 739 421 983 499 896 l 499 644 l 354 644 l 354 749 b 275 844 354 819 324 844 b 196 749 226 844 196 819 l 196 224 b 275 129 196 153 226 129 b 354 224 324 129 354 153 l 354 403 l 285 403 "},"h":{"ha":593,"x_min":0,"x_max":0,"o":"m 208 0 l 56 0 l 56 972 l 208 972 l 208 556 l 382 556 l 382 972 l 538 972 l 538 0 l 382 0 l 382 417 l 208 417 "},"i":{"ha":264,"x_min":0,"x_max":0,"o":"m 56 972 l 208 972 l 208 0 l 56 0 "},"j":{"ha":356,"x_min":0,"x_max":0,"o":"m 14 139 b 40 138 22 138 31 138 l 67 138 b 154 231 115 138 154 154 l 154 972 l 307 972 l 307 242 b 240 47 307 143 281 83 b 88 -3 200 11 144 -3 l 50 -3 b 14 0 39 -3 26 -1 "},"k":{"ha":575,"x_min":0,"x_max":0,"o":"m 256 388 l 208 299 l 208 0 l 56 0 l 56 972 l 208 972 l 208 549 l 408 972 l 561 972 l 349 539 l 561 0 l 404 0 "},"l":{"ha":471,"x_min":0,"x_max":0,"o":"m 56 972 l 208 972 l 208 139 l 460 139 l 460 0 l 56 0 "},"m":{"ha":751,"x_min":0,"x_max":0,"o":"m 379 282 l 483 972 l 696 972 l 696 0 l 551 0 l 551 697 l 446 0 l 301 0 l 188 688 l 188 0 l 54 0 l 54 972 l 267 972 "},"n":{"ha":593,"x_min":0,"x_max":0,"o":"m 192 704 l 192 0 l 54 0 l 54 972 l 246 972 l 403 390 l 403 972 l 539 972 l 539 0 l 382 0 "},"o":{"ha":550,"x_min":0,"x_max":0,"o":"m 43 739 b 275 983 43 896 125 983 b 507 739 425 983 507 896 l 507 233 b 275 -11 507 76 425 -11 b 43 233 125 -11 43 76 m 196 224 b 275 128 196 153 226 128 b 354 224 324 128 354 153 l 354 749 b 275 844 354 819 324 844 b 196 749 226 844 196 819 "},"p":{"ha":524,"x_min":0,"x_max":0,"o":"m 281 972 b 508 732 435 972 508 889 l 508 606 b 281 365 508 449 435 365 l 208 365 l 208 0 l 56 0 l 56 972 m 208 833 l 208 504 l 281 504 b 356 596 329 504 356 525 l 356 742 b 281 833 356 813 329 833 "},"q":{"ha":550,"x_min":0,"x_max":0,"o":"m 43 739 b 275 983 43 896 125 983 b 507 739 425 983 507 896 l 507 233 b 478 97 507 179 497 133 b 521 76 485 79 494 76 l 535 76 l 535 -60 l 514 -60 b 382 7 446 -60 403 -36 b 275 -11 350 -4 315 -11 b 43 233 125 -11 43 76 m 196 224 b 275 128 196 153 226 128 b 354 224 324 128 354 153 l 354 749 b 275 844 354 819 324 844 b 196 749 226 844 196 819 "},"r":{"ha":558,"x_min":0,"x_max":0,"o":"m 375 0 b 369 18 374 7 371 13 b 363 71 365 29 363 44 b 361 119 361 83 361 100 l 361 272 b 261 396 361 363 332 396 l 208 396 l 208 0 l 56 0 l 56 972 l 286 972 b 513 749 446 972 513 899 l 513 672 b 413 475 513 572 479 507 b 514 268 490 443 514 369 l 514 118 b 531 0 514 69 515 38 m 208 833 l 208 535 l 268 535 b 360 638 325 535 360 560 l 360 733 b 282 833 360 804 336 833 "},"s":{"ha":519,"x_min":0,"x_max":0,"o":"m 36 739 b 261 983 36 896 111 983 b 486 739 411 983 486 896 l 486 708 l 342 708 l 342 749 b 265 844 342 819 314 844 b 189 749 217 844 189 819 b 267 589 189 682 222 633 b 339 521 289 565 313 543 b 465 354 389 475 436 422 b 488 233 481 319 488 279 b 260 -11 488 76 410 -11 b 32 233 110 -11 32 76 l 32 293 l 176 293 l 176 224 b 256 129 176 153 207 129 b 335 224 304 129 335 153 b 257 385 335 290 301 339 b 186 453 235 407 211 429 b 58 618 135 497 88 550 b 36 739 43 653 36 693 "},"t":{"ha":494,"x_min":0,"x_max":0,"o":"m 11 972 l 483 972 l 483 833 l 324 833 l 324 0 l 171 0 l 171 833 l 11 833 "},"u":{"ha":553,"x_min":0,"x_max":0,"o":"m 201 972 l 201 222 b 281 128 201 151 232 128 b 360 222 329 128 360 151 l 360 972 l 504 972 l 504 232 b 276 -12 504 75 426 -12 b 49 232 126 -12 49 75 l 49 972 "},"v":{"ha":558,"x_min":0,"x_max":0,"o":"m 286 179 l 403 972 l 543 972 l 393 0 l 165 0 l 15 972 l 169 972 "},"w":{"ha":782,"x_min":0,"x_max":0,"o":"m 394 518 l 339 0 l 129 0 l 21 972 l 169 972 l 251 206 l 325 972 l 472 972 l 549 200 l 628 972 l 761 972 l 653 0 l 450 0 "},"x":{"ha":597,"x_min":0,"x_max":0,"o":"m 565 972 l 406 500 l 576 0 l 415 0 l 290 385 l 164 0 l 21 0 l 192 500 l 32 972 l 190 972 l 306 614 l 424 972 "},"y":{"ha":550,"x_min":0,"x_max":0,"o":"m 199 322 l 6 972 l 165 972 l 282 529 l 399 972 l 544 972 l 351 322 l 351 0 l 199 0 "},"z":{"ha":514,"x_min":0,"x_max":0,"o":"m 479 972 l 479 836 l 189 139 l 479 139 l 479 0 l 32 0 l 32 136 l 322 833 l 46 833 l 46 972 "},"{":{"ha":357,"x_min":0,"x_max":0,"o":"m 142 486 b 213 436 176 476 200 458 b 232 363 225 414 231 389 l 239 224 b 313 125 243 146 264 125 l 335 125 l 335 0 l 257 0 b 103 154 169 0 110 49 l 92 340 b 15 424 88 406 75 424 l 15 549 b 92 632 75 549 88 567 l 103 818 b 257 972 110 924 169 972 l 335 972 l 335 847 l 313 847 b 239 749 264 847 243 826 l 232 610 b 213 535 231 583 225 557 b 142 486 200 513 176 496 "},"|":{"ha":694,"x_min":0,"x_max":0,"o":"m 292 1063 l 417 1063 l 417 -90 l 292 -90 "},"}":{"ha":357,"x_min":0,"x_max":0,"o":"m 215 486 b 125 610 144 504 126 558 l 118 749 b 44 847 114 826 93 847 l 22 847 l 22 972 l 100 972 b 254 818 188 972 247 924 l 265 632 b 342 549 269 567 282 549 l 342 424 b 265 340 282 424 269 406 l 254 154 b 100 0 247 49 188 0 l 22 0 l 22 125 l 44 125 b 118 224 93 125 114 146 l 125 363 b 215 486 126 414 144 468 "},"~":{"ha":550,"x_min":0,"x_max":0,"o":"m 11 461 b 99 561 44 511 72 542 b 176 586 125 581 150 586 b 282 544 214 586 249 565 b 375 501 315 522 346 501 b 417 519 390 501 404 507 b 467 581 429 531 446 551 l 539 506 b 374 386 472 407 425 386 b 268 429 336 386 301 407 b 175 471 235 450 204 471 b 133 454 160 471 146 465 b 83 392 121 442 104 421 "}," ":{"ha":215,"x_min":0,"x_max":0,"o":""},"¡":{"ha":264,"x_min":0,"x_max":0,"o":"m 58 825 l 58 972 l 206 972 l 206 825 m 189 757 l 208 406 l 208 0 l 56 0 l 56 406 l 75 757 "},"¢":{"ha":550,"x_min":0,"x_max":0,"o":"m 213 51 b 50 289 106 74 50 156 l 50 683 b 213 921 50 815 106 897 l 213 993 l 338 993 l 338 922 b 506 683 449 900 506 817 l 506 617 l 361 617 l 361 693 b 282 789 361 764 331 789 b 203 693 233 789 203 764 l 203 279 b 282 185 203 208 233 185 b 361 279 331 185 361 208 l 361 390 l 506 390 l 506 289 b 338 50 506 156 449 71 l 338 -21 l 213 -21 "},"£":{"ha":550,"x_min":0,"x_max":0,"o":"m 61 410 l 154 410 b 125 478 146 433 136 457 b 67 629 103 521 81 568 b 56 739 60 660 56 696 b 281 983 56 896 131 983 b 506 739 431 983 506 896 l 506 643 l 361 643 l 361 749 b 285 844 361 819 333 844 b 208 749 236 844 208 819 b 246 554 208 661 226 604 b 276 483 256 529 265 506 b 301 410 286 460 294 436 l 469 410 l 469 292 l 311 292 b 233 139 304 221 276 172 l 496 139 l 496 0 l 42 0 l 42 133 b 174 292 114 133 169 192 l 61 292 "},"¤":{"ha":550,"x_min":0,"x_max":0,"o":"m 121 392 b 96 486 104 419 96 451 b 121 579 96 521 104 553 l 44 657 l 104 717 l 182 639 b 275 665 210 657 240 665 b 368 639 307 665 339 657 l 446 717 l 506 657 l 428 579 b 454 486 446 550 454 518 b 428 393 454 451 446 421 l 506 315 l 446 256 l 368 332 b 275 307 342 315 310 307 b 181 332 240 307 208 315 l 104 256 l 44 315 m 186 486 b 275 397 186 438 226 397 b 364 486 324 397 364 438 b 275 575 364 535 324 575 b 186 486 226 575 186 535 "},"¥":{"ha":550,"x_min":0,"x_max":0,"o":"m 540 972 l 363 376 l 478 376 l 478 300 l 351 300 l 351 238 l 478 238 l 478 161 l 351 161 l 351 0 l 199 0 l 199 161 l 72 161 l 72 238 l 199 238 l 199 300 l 72 300 l 72 376 l 186 376 l 10 972 l 169 972 l 282 543 l 394 972 "},"¦":{"ha":694,"x_min":0,"x_max":0,"o":"m 292 1063 l 417 1063 l 417 569 l 292 569 m 292 403 l 417 403 l 417 -90 l 292 -90 "},"§":{"ha":550,"x_min":0,"x_max":0,"o":"m 49 436 b 144 606 49 507 79 568 b 49 786 90 640 49 690 b 274 983 49 897 125 983 b 499 794 424 983 499 906 l 499 744 l 354 744 l 354 774 b 278 857 354 824 326 857 b 201 779 226 857 201 831 b 279 699 201 740 235 719 b 351 665 301 688 325 676 b 478 551 401 642 449 606 b 500 446 493 524 500 489 b 403 275 500 375 468 313 b 500 96 457 242 500 190 b 275 -101 500 -15 424 -101 b 50 88 125 -101 50 -24 l 50 157 l 194 157 l 194 108 b 271 25 194 58 222 25 b 347 103 322 25 347 51 b 269 185 347 142 314 163 b 199 218 247 194 224 206 b 71 332 147 240 100 276 b 49 436 56 358 49 393 m 194 442 b 279 335 194 386 231 358 b 354 440 325 342 354 389 b 268 546 354 494 317 522 b 194 442 222 539 194 493 "},"¨":{"ha":347,"x_min":0,"x_max":0,"o":"m 135 1157 l 135 1024 l 1 1024 l 1 1157 m 346 1157 l 346 1024 l 213 1024 l 213 1157 "},"©":{"ha":1022,"x_min":0,"x_max":0,"o":"m 28 486 b 167 843 28 631 81 754 b 511 983 253 932 374 983 b 857 843 649 983 771 932 b 994 486 943 754 994 631 b 857 129 994 342 943 218 b 511 -11 771 40 649 -11 b 167 129 374 -11 253 40 b 28 486 81 218 28 342 m 128 486 b 238 200 128 369 169 271 b 511 86 306 128 401 86 b 785 200 621 86 717 128 b 894 486 853 271 894 369 b 785 774 894 603 853 701 b 511 886 717 844 621 886 b 238 774 401 886 306 844 b 128 486 169 701 128 603 m 663 428 l 663 350 b 506 181 663 240 611 181 b 349 350 400 181 349 240 l 349 619 b 506 792 349 731 400 792 b 663 619 611 792 663 731 l 663 569 l 563 569 l 563 628 b 508 694 563 676 542 694 b 454 628 475 694 454 676 l 454 344 b 508 279 454 296 475 279 b 563 344 542 279 563 296 l 563 428 "},"ª":{"ha":386,"x_min":0,"x_max":0,"o":"m 42 601 b 97 736 42 668 63 710 b 239 775 132 763 182 774 l 239 839 b 200 890 239 874 226 890 b 153 831 168 890 153 875 l 153 799 l 61 799 l 61 825 b 204 979 61 924 108 979 b 336 825 299 979 336 924 l 336 463 l 254 463 l 249 529 b 150 456 233 481 200 456 b 42 596 78 456 42 503 m 139 604 b 189 544 139 560 157 544 b 239 594 218 544 235 557 l 239 703 b 157 672 196 701 171 689 b 139 617 143 656 139 635 m 336 399 l 336 303 l 42 303 l 42 399 "},"«":{"ha":493,"x_min":0,"x_max":0,"o":"m 246 844 l 161 488 l 246 108 l 108 108 l 22 488 l 108 844 m 471 844 l 386 488 l 471 108 l 333 108 l 247 488 l 333 844 "},"¬":{"ha":550,"x_min":0,"x_max":0,"o":"m 515 540 l 515 242 l 407 242 l 407 432 l 35 432 l 35 540 "},"­":{"ha":375,"x_min":0,"x_max":0,"o":"m 49 556 l 326 556 l 326 417 l 49 417 "},"®":{"ha":1022,"x_min":0,"x_max":0,"o":"m 28 486 b 167 843 28 631 81 754 b 511 983 253 932 374 983 b 857 843 649 983 771 932 b 994 486 943 754 994 631 b 857 129 994 342 943 218 b 511 -11 771 40 649 -11 b 167 129 374 -11 253 40 b 28 486 81 218 28 342 m 128 486 b 238 200 128 369 169 271 b 511 86 306 128 401 86 b 785 200 621 86 717 128 b 894 486 853 271 894 369 b 785 774 894 603 853 701 b 511 886 717 844 621 886 b 238 774 401 886 306 844 b 128 486 169 701 128 603 m 581 189 b 574 217 576 199 574 206 b 571 272 572 228 571 244 l 571 336 b 500 422 571 401 549 422 l 464 422 l 464 189 l 358 189 l 358 783 l 519 783 b 676 628 629 783 676 733 l 676 615 b 604 478 676 544 653 499 b 676 335 658 456 676 406 l 676 271 b 689 189 676 239 678 215 m 464 686 l 464 519 l 507 519 b 571 590 546 519 571 536 l 571 615 b 514 686 571 663 551 686 "},"¯":{"ha":347,"x_min":0,"x_max":0,"o":"m 333 1138 l 333 1029 l 14 1029 l 14 1138 "},"°":{"ha":317,"x_min":0,"x_max":0,"o":"m 21 846 b 158 983 21 924 81 983 b 296 846 236 983 296 924 b 158 708 296 768 236 708 b 21 846 81 708 21 768 m 90 846 b 158 778 90 808 121 778 b 226 846 196 778 226 808 b 158 914 226 883 196 914 b 90 846 121 914 90 883 "},"±":{"ha":550,"x_min":0,"x_max":0,"o":"m 501 350 l 501 242 l 49 242 l 49 350 l 221 350 l 221 461 l 49 461 l 49 569 l 221 569 l 221 728 l 329 728 l 329 569 l 501 569 l 501 461 l 329 461 l 329 350 "},"²":{"ha":389,"x_min":0,"x_max":0,"o":"m 250 956 b 200 1025 250 1010 232 1025 b 150 964 168 1025 150 1008 l 150 899 l 58 899 l 58 958 b 203 1113 58 1058 107 1113 b 347 958 299 1113 347 1058 b 294 793 347 890 325 838 b 244 732 279 771 263 750 b 163 626 210 693 179 660 b 156 575 154 610 151 593 l 339 575 l 339 488 l 58 488 l 58 563 b 108 706 58 622 79 667 b 154 760 122 724 138 742 b 236 878 188 794 218 832 b 250 956 246 900 250 926 "},"³":{"ha":389,"x_min":0,"x_max":0,"o":"m 242 686 b 179 764 242 746 222 764 l 146 764 l 146 851 l 183 851 b 242 918 221 851 242 869 l 242 953 b 192 1024 242 1008 224 1024 b 142 963 160 1024 142 1006 l 142 924 l 50 924 l 50 956 b 194 1111 50 1056 99 1111 b 339 956 290 1111 339 1056 l 339 940 b 271 814 339 875 317 832 b 339 685 319 793 339 747 l 339 636 b 194 481 339 536 290 481 b 50 636 99 481 50 536 l 50 686 l 142 686 l 142 629 b 192 568 142 586 160 568 b 242 639 224 568 242 583 "},"´":{"ha":347,"x_min":0,"x_max":0,"o":"m 282 1178 l 140 1024 l 38 1024 l 132 1178 "},"µ":{"ha":550,"x_min":0,"x_max":0,"o":"m 196 224 b 275 128 196 153 226 128 b 354 224 324 128 354 153 l 354 694 l 507 694 l 507 0 l 368 0 l 368 72 b 229 -11 339 17 293 -11 b 196 -8 217 -11 206 -10 l 196 -129 l 43 -129 l 43 694 l 196 694 "},"¶":{"ha":550,"x_min":0,"x_max":0,"o":"m 494 -90 l 383 -90 l 383 861 l 308 861 l 308 -90 l 197 -90 l 200 368 b 19 606 83 368 19 467 l 19 732 b 247 972 19 889 93 972 l 494 972 "},"·":{"ha":258,"x_min":0,"x_max":0,"o":"m 203 560 l 203 413 l 56 413 l 56 560 "},"¸":{"ha":347,"x_min":0,"x_max":0,"o":"m 36 -110 l 139 -110 l 139 -121 b 169 -149 139 -142 154 -149 b 204 -115 193 -149 204 -137 b 154 -79 204 -92 188 -79 l 140 -79 l 140 19 l 207 19 l 207 -54 b 310 -119 275 -54 310 -71 b 271 -189 310 -157 296 -178 b 169 -204 246 -201 210 -204 b 36 -124 93 -204 36 -189 "},"¹":{"ha":278,"x_min":0,"x_max":0,"o":"m 35 1026 b 111 1050 72 1026 94 1036 b 143 1104 126 1064 133 1083 l 207 1104 l 207 488 l 110 488 l 110 958 l 35 958 "},"º":{"ha":389,"x_min":0,"x_max":0,"o":"m 47 825 b 194 979 47 924 99 979 b 342 825 290 979 342 924 l 342 610 b 194 456 342 511 290 456 b 47 610 99 456 47 511 m 144 604 b 194 544 144 560 163 544 b 244 604 226 544 244 560 l 244 831 b 194 890 244 875 226 890 b 144 831 163 890 144 875 m 342 399 l 342 303 l 47 303 l 47 399 "},"»":{"ha":493,"x_min":0,"x_max":0,"o":"m 160 844 l 246 488 l 160 108 l 22 108 l 107 488 l 22 844 m 385 844 l 471 488 l 385 108 l 247 108 l 332 488 l 247 844 "},"¼":{"ha":871,"x_min":0,"x_max":0,"o":"m 90 894 b 167 918 128 894 150 904 b 199 972 182 932 189 951 l 263 972 l 263 356 l 165 356 l 165 826 l 90 826 m 606 972 l 696 972 l 313 0 l 222 0 m 515 200 l 692 617 l 797 617 l 797 200 l 843 200 l 843 111 l 797 111 l 797 0 l 701 0 l 701 111 l 515 111 m 701 200 l 701 428 l 603 200 "},"½":{"ha":871,"x_min":0,"x_max":0,"o":"m 90 894 b 167 918 128 894 150 904 b 199 972 182 932 189 951 l 263 972 l 263 356 l 165 356 l 165 826 l 90 826 m 564 972 l 654 972 l 271 0 l 181 0 m 732 468 b 682 538 732 522 714 538 b 632 476 650 538 632 521 l 632 411 l 540 411 l 540 471 b 685 625 540 571 589 625 b 829 471 781 625 829 571 b 776 306 829 404 807 350 b 726 244 761 283 744 263 b 644 139 692 206 661 172 b 638 88 636 122 633 106 l 821 88 l 821 0 l 540 0 l 540 75 b 590 218 540 135 561 179 b 636 272 604 236 619 254 b 718 390 669 307 700 344 b 732 468 728 413 732 439 "},"¾":{"ha":871,"x_min":0,"x_max":0,"o":"m 242 554 b 179 632 242 614 222 632 l 146 632 l 146 719 l 183 719 b 242 786 221 719 242 738 l 242 821 b 192 892 242 876 224 892 b 142 831 160 892 142 874 l 142 792 l 50 792 l 50 824 b 194 979 50 924 99 979 b 339 824 290 979 339 924 l 339 808 b 271 682 339 743 317 700 b 339 553 319 661 339 615 l 339 504 b 194 349 339 404 290 349 b 50 504 99 349 50 404 l 50 554 l 142 554 l 142 497 b 192 436 142 454 160 436 b 242 507 224 436 242 451 m 619 972 l 710 972 l 326 0 l 236 0 m 515 200 l 692 617 l 797 617 l 797 200 l 843 200 l 843 111 l 797 111 l 797 0 l 701 0 l 701 111 l 515 111 m 701 200 l 701 428 l 603 200 "},"¿":{"ha":500,"x_min":0,"x_max":0,"o":"m 193 825 l 193 972 l 340 972 l 340 825 m 333 757 b 342 697 339 740 342 721 b 299 535 342 626 322 578 b 258 472 286 513 274 492 b 188 328 229 432 204 388 b 175 224 179 299 175 264 b 251 128 175 153 203 128 b 328 224 300 128 328 153 l 328 329 l 472 329 l 472 233 b 247 -11 472 76 397 -11 b 22 233 97 -11 22 76 b 69 428 22 317 42 378 b 113 497 82 453 97 476 b 190 624 144 539 172 578 b 203 703 199 647 203 674 b 197 757 203 724 201 742 "},"À":{"ha":565,"x_min":0,"x_max":0,"o":"m 272 1178 l 367 1024 l 257 1024 l 115 1178 m 550 0 l 396 0 l 369 176 l 182 176 l 156 0 l 15 0 l 171 972 l 394 972 m 201 308 l 349 308 l 275 800 "},"Á":{"ha":565,"x_min":0,"x_max":0,"o":"m 446 1178 l 304 1024 l 201 1024 l 296 1178 m 550 0 l 396 0 l 369 176 l 182 176 l 156 0 l 15 0 l 171 972 l 394 972 m 201 308 l 349 308 l 275 800 "},"Â":{"ha":565,"x_min":0,"x_max":0,"o":"m 90 1024 l 214 1178 l 351 1178 l 475 1024 l 344 1024 l 282 1100 l 221 1024 m 550 0 l 396 0 l 369 176 l 182 176 l 156 0 l 15 0 l 171 972 l 394 972 m 201 308 l 349 308 l 275 800 "},"Ã":{"ha":565,"x_min":0,"x_max":0,"o":"m 338 1129 b 397 1169 364 1129 381 1135 l 471 1118 b 353 1024 444 1047 401 1024 b 285 1042 324 1024 304 1033 b 228 1058 265 1050 249 1058 b 168 1018 201 1058 185 1053 l 94 1069 b 213 1164 121 1140 164 1164 b 282 1147 242 1164 263 1156 b 338 1129 301 1139 317 1129 m 550 0 l 396 0 l 369 176 l 182 176 l 156 0 l 15 0 l 171 972 l 394 972 m 201 308 l 349 308 l 275 800 "},"Ä":{"ha":565,"x_min":0,"x_max":0,"o":"m 243 1157 l 243 1024 l 110 1024 l 110 1157 m 454 1157 l 454 1024 l 321 1024 l 321 1157 m 550 0 l 396 0 l 369 176 l 182 176 l 156 0 l 15 0 l 171 972 l 394 972 m 201 308 l 349 308 l 275 800 "},"Å":{"ha":565,"x_min":0,"x_max":0,"o":"m 171 1131 b 282 1242 171 1193 219 1242 b 393 1131 344 1242 393 1193 b 282 1019 393 1068 344 1019 b 171 1131 219 1019 171 1068 m 240 1131 b 282 1089 240 1107 258 1089 b 324 1131 306 1089 324 1107 b 282 1172 324 1154 306 1172 b 240 1131 258 1172 240 1154 m 550 0 l 396 0 l 369 176 l 182 176 l 156 0 l 15 0 l 171 972 l 394 972 m 201 308 l 349 308 l 275 800 "},"Æ":{"ha":806,"x_min":0,"x_max":0,"o":"m 350 176 l 196 176 l 151 0 l 6 0 l 265 972 l 767 972 l 767 833 l 503 833 l 503 563 l 713 563 l 713 424 l 503 424 l 503 139 l 767 139 l 767 0 l 350 0 m 350 308 l 350 776 l 231 308 "},"Ç":{"ha":536,"x_min":0,"x_max":0,"o":"m 499 363 l 499 233 b 301 -10 499 89 431 1 l 301 -54 b 404 -119 369 -54 404 -71 b 365 -189 404 -157 390 -178 b 264 -204 340 -201 304 -204 b 131 -124 188 -204 131 -189 l 131 -110 l 233 -110 l 233 -121 b 264 -149 233 -142 249 -149 b 299 -115 288 -149 299 -137 b 249 -79 299 -92 282 -79 l 235 -79 l 235 -8 b 43 233 107 4 43 89 l 43 739 b 271 983 43 896 121 983 b 499 739 421 983 499 896 l 499 644 l 354 644 l 354 749 b 275 844 354 819 324 844 b 196 749 226 844 196 819 l 196 224 b 275 129 196 153 226 129 b 354 224 324 129 354 153 l 354 363 "},"È":{"ha":511,"x_min":0,"x_max":0,"o":"m 251 1178 l 346 1024 l 236 1024 l 94 1178 m 208 563 l 418 563 l 418 424 l 208 424 l 208 139 l 472 139 l 472 0 l 56 0 l 56 972 l 472 972 l 472 833 l 208 833 "},"É":{"ha":511,"x_min":0,"x_max":0,"o":"m 426 1178 l 285 1024 l 182 1024 l 276 1178 m 208 563 l 418 563 l 418 424 l 208 424 l 208 139 l 472 139 l 472 0 l 56 0 l 56 972 l 472 972 l 472 833 l 208 833 "},"Ê":{"ha":511,"x_min":0,"x_max":0,"o":"m 69 1024 l 193 1178 l 331 1178 l 454 1024 l 324 1024 l 261 1100 l 200 1024 m 208 563 l 418 563 l 418 424 l 208 424 l 208 139 l 472 139 l 472 0 l 56 0 l 56 972 l 472 972 l 472 833 l 208 833 "},"Ë":{"ha":511,"x_min":0,"x_max":0,"o":"m 224 1157 l 224 1024 l 90 1024 l 90 1157 m 435 1157 l 435 1024 l 301 1024 l 301 1157 m 208 563 l 418 563 l 418 424 l 208 424 l 208 139 l 472 139 l 472 0 l 56 0 l 56 972 l 472 972 l 472 833 l 208 833 "},"Ì":{"ha":264,"x_min":0,"x_max":0,"o":"m 122 1178 l 217 1024 l 107 1024 l -35 1178 m 56 972 l 208 972 l 208 0 l 56 0 "},"Í":{"ha":264,"x_min":0,"x_max":0,"o":"m 296 1178 l 154 1024 l 51 1024 l 146 1178 m 56 972 l 208 972 l 208 0 l 56 0 "},"Î":{"ha":264,"x_min":0,"x_max":0,"o":"m -60 1024 l 64 1178 l 201 1178 l 325 1024 l 194 1024 l 132 1100 l 71 1024 m 56 972 l 208 972 l 208 0 l 56 0 "},"Ï":{"ha":264,"x_min":0,"x_max":0,"o":"m 93 1157 l 93 1024 l -40 1024 l -40 1157 m 304 1157 l 304 1024 l 171 1024 l 171 1157 m 56 972 l 208 972 l 208 0 l 56 0 "},"Ð":{"ha":567,"x_min":0,"x_max":0,"o":"m 56 424 l 6 424 l 6 549 l 56 549 l 56 972 l 297 972 b 525 732 451 972 525 889 l 525 240 b 297 0 525 83 451 0 l 56 0 m 208 833 l 208 549 l 303 549 l 303 424 l 208 424 l 208 139 l 294 139 b 372 233 343 139 372 163 l 372 739 b 294 833 372 810 343 833 "},"Ñ":{"ha":593,"x_min":0,"x_max":0,"o":"m 351 1129 b 411 1169 378 1129 394 1135 l 485 1118 b 367 1024 458 1047 415 1024 b 299 1042 338 1024 318 1033 b 242 1058 279 1050 263 1058 b 182 1018 215 1058 199 1053 l 108 1069 b 226 1164 135 1140 178 1164 b 296 1147 256 1164 276 1156 b 351 1129 315 1139 331 1129 m 192 704 l 192 0 l 54 0 l 54 972 l 246 972 l 403 390 l 403 972 l 539 972 l 539 0 l 382 0 "},"Ò":{"ha":550,"x_min":0,"x_max":0,"o":"m 264 1178 l 358 1024 l 249 1024 l 107 1178 m 43 739 b 275 983 43 896 125 983 b 507 739 425 983 507 896 l 507 233 b 275 -11 507 76 425 -11 b 43 233 125 -11 43 76 m 196 224 b 275 128 196 153 226 128 b 354 224 324 128 354 153 l 354 749 b 275 844 354 819 324 844 b 196 749 226 844 196 819 "},"Ó":{"ha":550,"x_min":0,"x_max":0,"o":"m 439 1178 l 297 1024 l 194 1024 l 289 1178 m 43 739 b 275 983 43 896 125 983 b 507 739 425 983 507 896 l 507 233 b 275 -11 507 76 425 -11 b 43 233 125 -11 43 76 m 196 224 b 275 128 196 153 226 128 b 354 224 324 128 354 153 l 354 749 b 275 844 354 819 324 844 b 196 749 226 844 196 819 "},"Ô":{"ha":550,"x_min":0,"x_max":0,"o":"m 82 1024 l 206 1178 l 343 1178 l 467 1024 l 336 1024 l 274 1100 l 213 1024 m 43 739 b 275 983 43 896 125 983 b 507 739 425 983 507 896 l 507 233 b 275 -11 507 76 425 -11 b 43 233 125 -11 43 76 m 196 224 b 275 128 196 153 226 128 b 354 224 324 128 354 153 l 354 749 b 275 844 354 819 324 844 b 196 749 226 844 196 819 "},"Õ":{"ha":550,"x_min":0,"x_max":0,"o":"m 331 1129 b 390 1169 357 1129 374 1135 l 464 1118 b 346 1024 438 1047 394 1024 b 278 1042 317 1024 297 1033 b 221 1058 258 1050 242 1058 b 161 1018 194 1058 178 1053 l 88 1069 b 206 1164 114 1140 157 1164 b 275 1147 235 1164 256 1156 b 331 1129 294 1139 310 1129 m 43 739 b 275 983 43 896 125 983 b 507 739 425 983 507 896 l 507 233 b 275 -11 507 76 425 -11 b 43 233 125 -11 43 76 m 196 224 b 275 128 196 153 226 128 b 354 224 324 128 354 153 l 354 749 b 275 844 354 819 324 844 b 196 749 226 844 196 819 "},"Ö":{"ha":550,"x_min":0,"x_max":0,"o":"m 236 1157 l 236 1024 l 103 1024 l 103 1157 m 447 1157 l 447 1024 l 314 1024 l 314 1157 m 43 739 b 275 983 43 896 125 983 b 507 739 425 983 507 896 l 507 233 b 275 -11 507 76 425 -11 b 43 233 125 -11 43 76 m 196 224 b 275 128 196 153 226 128 b 354 224 324 128 354 153 l 354 749 b 275 844 354 819 324 844 b 196 749 226 844 196 819 "},"×":{"ha":550,"x_min":0,"x_max":0,"o":"m 275 560 l 422 707 l 496 633 l 349 486 l 496 339 l 422 265 l 275 413 l 126 265 l 53 339 l 200 486 l 54 632 l 128 706 "},"Ø":{"ha":550,"x_min":0,"x_max":0,"o":"m 92 64 b 43 233 60 107 43 163 l 43 739 b 275 983 43 896 125 983 b 414 947 331 983 376 971 l 442 1024 l 493 1006 l 457 907 b 507 739 490 867 507 810 l 507 233 b 275 -11 507 76 425 -11 b 136 24 218 -11 171 0 l 108 -51 l 57 -33 m 196 349 l 351 778 b 275 844 344 826 315 844 b 196 749 226 844 196 819 m 275 128 b 354 224 324 128 354 153 l 354 624 l 197 194 b 275 128 207 146 232 128 "},"Ù":{"ha":553,"x_min":0,"x_max":0,"o":"m 267 1178 l 361 1024 l 251 1024 l 110 1178 m 201 972 l 201 222 b 281 128 201 151 232 128 b 360 222 329 128 360 151 l 360 972 l 504 972 l 504 232 b 276 -12 504 75 426 -12 b 49 232 126 -12 49 75 l 49 972 "},"Ú":{"ha":553,"x_min":0,"x_max":0,"o":"m 442 1178 l 300 1024 l 197 1024 l 292 1178 m 201 972 l 201 222 b 281 128 201 151 232 128 b 360 222 329 128 360 151 l 360 972 l 504 972 l 504 232 b 276 -12 504 75 426 -12 b 49 232 126 -12 49 75 l 49 972 "},"Û":{"ha":553,"x_min":0,"x_max":0,"o":"m 86 1024 l 210 1178 l 347 1178 l 471 1024 l 340 1024 l 278 1100 l 217 1024 m 201 972 l 201 222 b 281 128 201 151 232 128 b 360 222 329 128 360 151 l 360 972 l 504 972 l 504 232 b 276 -12 504 75 426 -12 b 49 232 126 -12 49 75 l 49 972 "},"Ü":{"ha":553,"x_min":0,"x_max":0,"o":"m 240 1157 l 240 1024 l 107 1024 l 107 1157 m 451 1157 l 451 1024 l 318 1024 l 318 1157 m 201 972 l 201 222 b 281 128 201 151 232 128 b 360 222 329 128 360 151 l 360 972 l 504 972 l 504 232 b 276 -12 504 75 426 -12 b 49 232 126 -12 49 75 l 49 972 "},"Ý":{"ha":550,"x_min":0,"x_max":0,"o":"m 444 1178 l 303 1024 l 200 1024 l 294 1178 m 199 322 l 6 972 l 165 972 l 282 529 l 399 972 l 544 972 l 351 322 l 351 0 l 199 0 "},"Þ":{"ha":524,"x_min":0,"x_max":0,"o":"m 56 972 l 208 972 l 208 861 l 281 861 b 508 621 435 861 508 778 l 508 494 b 281 254 508 338 435 254 l 208 254 l 208 0 l 56 0 m 208 722 l 208 393 l 281 393 b 356 485 329 393 356 414 l 356 631 b 281 722 356 701 329 722 "},"ß":{"ha":1039,"x_min":0,"x_max":0,"o":"m 36 739 b 261 983 36 896 111 983 b 486 739 411 983 486 896 l 486 708 l 342 708 l 342 749 b 265 844 342 819 314 844 b 189 749 217 844 189 819 b 267 589 189 682 222 633 b 339 521 289 565 313 543 b 465 354 389 475 436 422 b 488 233 481 319 488 279 b 260 -11 488 76 410 -11 b 32 233 110 -11 32 76 l 32 293 l 176 293 l 176 224 b 256 129 176 153 207 129 b 335 224 304 129 335 153 b 257 385 335 290 301 339 b 186 453 235 407 211 429 b 58 618 135 497 88 550 b 36 739 43 653 36 693 m 556 739 b 781 983 556 896 631 983 b 1006 739 931 983 1006 896 l 1006 708 l 861 708 l 861 749 b 785 844 861 819 833 844 b 708 749 736 844 708 819 b 786 589 708 682 742 633 b 858 521 808 565 832 543 b 985 354 908 475 956 422 b 1007 233 1000 319 1007 279 b 779 -11 1007 76 929 -11 b 551 233 629 -11 551 76 l 551 293 l 696 293 l 696 224 b 775 129 696 153 726 129 b 854 224 824 129 854 153 b 776 385 854 290 821 339 b 706 453 754 407 731 429 b 578 618 654 497 607 550 b 556 739 563 653 556 693 "},"à":{"ha":565,"x_min":0,"x_max":0,"o":"m 272 1178 l 367 1024 l 257 1024 l 115 1178 m 550 0 l 396 0 l 369 176 l 182 176 l 156 0 l 15 0 l 171 972 l 394 972 m 201 308 l 349 308 l 275 800 "},"á":{"ha":565,"x_min":0,"x_max":0,"o":"m 446 1178 l 304 1024 l 201 1024 l 296 1178 m 550 0 l 396 0 l 369 176 l 182 176 l 156 0 l 15 0 l 171 972 l 394 972 m 201 308 l 349 308 l 275 800 "},"â":{"ha":565,"x_min":0,"x_max":0,"o":"m 90 1024 l 214 1178 l 351 1178 l 475 1024 l 344 1024 l 282 1100 l 221 1024 m 550 0 l 396 0 l 369 176 l 182 176 l 156 0 l 15 0 l 171 972 l 394 972 m 201 308 l 349 308 l 275 800 "},"ã":{"ha":565,"x_min":0,"x_max":0,"o":"m 338 1129 b 397 1169 364 1129 381 1135 l 471 1118 b 353 1024 444 1047 401 1024 b 285 1042 324 1024 304 1033 b 228 1058 265 1050 249 1058 b 168 1018 201 1058 185 1053 l 94 1069 b 213 1164 121 1140 164 1164 b 282 1147 242 1164 263 1156 b 338 1129 301 1139 317 1129 m 550 0 l 396 0 l 369 176 l 182 176 l 156 0 l 15 0 l 171 972 l 394 972 m 201 308 l 349 308 l 275 800 "},"ä":{"ha":565,"x_min":0,"x_max":0,"o":"m 243 1157 l 243 1024 l 110 1024 l 110 1157 m 454 1157 l 454 1024 l 321 1024 l 321 1157 m 550 0 l 396 0 l 369 176 l 182 176 l 156 0 l 15 0 l 171 972 l 394 972 m 201 308 l 349 308 l 275 800 "},"å":{"ha":565,"x_min":0,"x_max":0,"o":"m 171 1131 b 282 1242 171 1193 219 1242 b 393 1131 344 1242 393 1193 b 282 1019 393 1068 344 1019 b 171 1131 219 1019 171 1068 m 240 1131 b 282 1089 240 1107 258 1089 b 324 1131 306 1089 324 1107 b 282 1172 324 1154 306 1172 b 240 1131 258 1172 240 1154 m 550 0 l 396 0 l 369 176 l 182 176 l 156 0 l 15 0 l 171 972 l 394 972 m 201 308 l 349 308 l 275 800 "},"æ":{"ha":806,"x_min":0,"x_max":0,"o":"m 503 563 l 713 563 l 713 424 l 503 424 l 503 139 l 767 139 l 767 0 l 350 0 l 350 176 l 196 176 l 151 0 l 6 0 l 265 972 l 767 972 l 767 833 l 503 833 m 350 308 l 350 776 l 231 308 "},"ç":{"ha":536,"x_min":0,"x_max":0,"o":"m 499 363 l 499 233 b 301 -10 499 89 431 1 l 301 -54 b 404 -119 369 -54 404 -71 b 365 -189 404 -157 390 -178 b 264 -204 340 -201 304 -204 b 131 -124 188 -204 131 -189 l 131 -110 l 233 -110 l 233 -121 b 264 -149 233 -142 249 -149 b 299 -115 288 -149 299 -137 b 249 -79 299 -92 282 -79 l 235 -79 l 235 -8 b 43 233 107 4 43 89 l 43 739 b 271 983 43 896 121 983 b 499 739 421 983 499 896 l 499 644 l 354 644 l 354 749 b 275 844 354 819 324 844 b 196 749 226 844 196 819 l 196 224 b 275 129 196 153 226 129 b 354 224 324 129 354 153 l 354 363 "},"è":{"ha":511,"x_min":0,"x_max":0,"o":"m 251 1178 l 346 1024 l 236 1024 l 94 1178 m 208 563 l 418 563 l 418 424 l 208 424 l 208 139 l 472 139 l 472 0 l 56 0 l 56 972 l 472 972 l 472 833 l 208 833 "},"é":{"ha":511,"x_min":0,"x_max":0,"o":"m 426 1178 l 285 1024 l 182 1024 l 276 1178 m 208 563 l 418 563 l 418 424 l 208 424 l 208 139 l 472 139 l 472 0 l 56 0 l 56 972 l 472 972 l 472 833 l 208 833 "},"ê":{"ha":511,"x_min":0,"x_max":0,"o":"m 69 1024 l 193 1178 l 331 1178 l 454 1024 l 324 1024 l 261 1100 l 200 1024 m 208 563 l 418 563 l 418 424 l 208 424 l 208 139 l 472 139 l 472 0 l 56 0 l 56 972 l 472 972 l 472 833 l 208 833 "},"ë":{"ha":511,"x_min":0,"x_max":0,"o":"m 224 1157 l 224 1024 l 90 1024 l 90 1157 m 435 1157 l 435 1024 l 301 1024 l 301 1157 m 208 563 l 418 563 l 418 424 l 208 424 l 208 139 l 472 139 l 472 0 l 56 0 l 56 972 l 472 972 l 472 833 l 208 833 "},"ì":{"ha":264,"x_min":0,"x_max":0,"o":"m 122 1178 l 217 1024 l 107 1024 l -35 1178 m 56 972 l 208 972 l 208 0 l 56 0 "},"í":{"ha":264,"x_min":0,"x_max":0,"o":"m 296 1178 l 154 1024 l 51 1024 l 146 1178 m 56 972 l 208 972 l 208 0 l 56 0 "},"î":{"ha":264,"x_min":0,"x_max":0,"o":"m -60 1024 l 64 1178 l 201 1178 l 325 1024 l 194 1024 l 132 1100 l 71 1024 m 56 972 l 208 972 l 208 0 l 56 0 "},"ï":{"ha":264,"x_min":0,"x_max":0,"o":"m 93 1157 l 93 1024 l -40 1024 l -40 1157 m 304 1157 l 304 1024 l 171 1024 l 171 1157 m 56 972 l 208 972 l 208 0 l 56 0 "},"ð":{"ha":567,"x_min":0,"x_max":0,"o":"m 56 424 l 6 424 l 6 549 l 56 549 l 56 972 l 297 972 b 525 732 451 972 525 889 l 525 240 b 297 0 525 83 451 0 l 56 0 m 208 833 l 208 549 l 303 549 l 303 424 l 208 424 l 208 139 l 294 139 b 372 233 343 139 372 163 l 372 739 b 294 833 372 810 343 833 "},"ñ":{"ha":593,"x_min":0,"x_max":0,"o":"m 351 1129 b 411 1169 378 1129 394 1135 l 485 1118 b 367 1024 458 1047 415 1024 b 299 1042 338 1024 318 1033 b 242 1058 279 1050 263 1058 b 182 1018 215 1058 199 1053 l 108 1069 b 226 1164 135 1140 178 1164 b 296 1147 256 1164 276 1156 b 351 1129 315 1139 331 1129 m 192 704 l 192 0 l 54 0 l 54 972 l 246 972 l 403 390 l 403 972 l 539 972 l 539 0 l 382 0 "},"ò":{"ha":550,"x_min":0,"x_max":0,"o":"m 264 1178 l 358 1024 l 249 1024 l 107 1178 m 43 739 b 275 983 43 896 125 983 b 507 739 425 983 507 896 l 507 233 b 275 -11 507 76 425 -11 b 43 233 125 -11 43 76 m 196 224 b 275 128 196 153 226 128 b 354 224 324 128 354 153 l 354 749 b 275 844 354 819 324 844 b 196 749 226 844 196 819 "},"ó":{"ha":550,"x_min":0,"x_max":0,"o":"m 439 1178 l 297 1024 l 194 1024 l 289 1178 m 43 739 b 275 983 43 896 125 983 b 507 739 425 983 507 896 l 507 233 b 275 -11 507 76 425 -11 b 43 233 125 -11 43 76 m 196 224 b 275 128 196 153 226 128 b 354 224 324 128 354 153 l 354 749 b 275 844 354 819 324 844 b 196 749 226 844 196 819 "},"ô":{"ha":550,"x_min":0,"x_max":0,"o":"m 82 1024 l 206 1178 l 343 1178 l 467 1024 l 336 1024 l 274 1100 l 213 1024 m 43 739 b 275 983 43 896 125 983 b 507 739 425 983 507 896 l 507 233 b 275 -11 507 76 425 -11 b 43 233 125 -11 43 76 m 196 224 b 275 128 196 153 226 128 b 354 224 324 128 354 153 l 354 749 b 275 844 354 819 324 844 b 196 749 226 844 196 819 "},"õ":{"ha":550,"x_min":0,"x_max":0,"o":"m 331 1129 b 390 1169 357 1129 374 1135 l 464 1118 b 346 1024 438 1047 394 1024 b 278 1042 317 1024 297 1033 b 221 1058 258 1050 242 1058 b 161 1018 194 1058 178 1053 l 88 1069 b 206 1164 114 1140 157 1164 b 275 1147 235 1164 256 1156 b 331 1129 294 1139 310 1129 m 43 739 b 275 983 43 896 125 983 b 507 739 425 983 507 896 l 507 233 b 275 -11 507 76 425 -11 b 43 233 125 -11 43 76 m 196 224 b 275 128 196 153 226 128 b 354 224 324 128 354 153 l 354 749 b 275 844 354 819 324 844 b 196 749 226 844 196 819 "},"ö":{"ha":550,"x_min":0,"x_max":0,"o":"m 236 1157 l 236 1024 l 103 1024 l 103 1157 m 447 1157 l 447 1024 l 314 1024 l 314 1157 m 43 739 b 275 983 43 896 125 983 b 507 739 425 983 507 896 l 507 233 b 275 -11 507 76 425 -11 b 43 233 125 -11 43 76 m 196 224 b 275 128 196 153 226 128 b 354 224 324 128 354 153 l 354 749 b 275 844 354 819 324 844 b 196 749 226 844 196 819 "},"÷":{"ha":550,"x_min":0,"x_max":0,"o":"m 349 771 l 349 624 l 201 624 l 201 771 m 515 540 l 515 432 l 35 432 l 35 540 m 349 347 l 349 200 l 201 200 l 201 347 "},"ø":{"ha":550,"x_min":0,"x_max":0,"o":"m 43 739 b 275 983 43 896 125 983 b 414 947 331 983 376 971 l 442 1024 l 493 1006 l 457 907 b 507 739 490 867 507 810 l 507 233 b 275 -11 507 76 425 -11 b 136 24 218 -11 171 0 l 108 -51 l 57 -33 l 92 64 b 43 233 60 107 43 163 m 196 349 l 351 778 b 275 844 344 826 315 844 b 196 749 226 844 196 819 m 275 128 b 354 224 324 128 354 153 l 354 624 l 197 194 b 275 128 207 146 232 128 "},"ù":{"ha":553,"x_min":0,"x_max":0,"o":"m 267 1178 l 361 1024 l 251 1024 l 110 1178 m 201 972 l 201 222 b 281 128 201 151 232 128 b 360 222 329 128 360 151 l 360 972 l 504 972 l 504 232 b 276 -12 504 75 426 -12 b 49 232 126 -12 49 75 l 49 972 "},"ú":{"ha":553,"x_min":0,"x_max":0,"o":"m 442 1178 l 300 1024 l 197 1024 l 292 1178 m 201 972 l 201 222 b 281 128 201 151 232 128 b 360 222 329 128 360 151 l 360 972 l 504 972 l 504 232 b 276 -12 504 75 426 -12 b 49 232 126 -12 49 75 l 49 972 "},"û":{"ha":553,"x_min":0,"x_max":0,"o":"m 86 1024 l 210 1178 l 347 1178 l 471 1024 l 340 1024 l 278 1100 l 217 1024 m 201 972 l 201 222 b 281 128 201 151 232 128 b 360 222 329 128 360 151 l 360 972 l 504 972 l 504 232 b 276 -12 504 75 426 -12 b 49 232 126 -12 49 75 l 49 972 "},"ü":{"ha":553,"x_min":0,"x_max":0,"o":"m 240 1157 l 240 1024 l 107 1024 l 107 1157 m 451 1157 l 451 1024 l 318 1024 l 318 1157 m 201 972 l 201 222 b 281 128 201 151 232 128 b 360 222 329 128 360 151 l 360 972 l 504 972 l 504 232 b 276 -12 504 75 426 -12 b 49 232 126 -12 49 75 l 49 972 "},"ý":{"ha":550,"x_min":0,"x_max":0,"o":"m 444 1178 l 303 1024 l 200 1024 l 294 1178 m 199 322 l 6 972 l 165 972 l 282 529 l 399 972 l 544 972 l 351 322 l 351 0 l 199 0 "},"þ":{"ha":524,"x_min":0,"x_max":0,"o":"m 56 972 l 208 972 l 208 861 l 281 861 b 508 621 435 861 508 778 l 508 494 b 281 254 508 338 435 254 l 208 254 l 208 0 l 56 0 m 208 722 l 208 393 l 281 393 b 356 485 329 393 356 414 l 356 631 b 281 722 356 701 329 722 "},"ÿ":{"ha":550,"x_min":0,"x_max":0,"o":"m 242 1157 l 242 1024 l 108 1024 l 108 1157 m 453 1157 l 453 1024 l 319 1024 l 319 1157 m 199 322 l 6 972 l 165 972 l 282 529 l 399 972 l 544 972 l 351 322 l 351 0 l 199 0 "},"Ā":{"ha":565,"x_min":0,"x_max":0,"o":"m 442 1138 l 442 1029 l 122 1029 l 122 1138 m 550 0 l 396 0 l 369 176 l 182 176 l 156 0 l 15 0 l 171 972 l 394 972 m 201 308 l 349 308 l 275 800 "},"ā":{"ha":565,"x_min":0,"x_max":0,"o":"m 442 1138 l 442 1029 l 122 1029 l 122 1138 m 550 0 l 396 0 l 369 176 l 182 176 l 156 0 l 15 0 l 171 972 l 394 972 m 201 308 l 349 308 l 275 800 "},"Ă":{"ha":565,"x_min":0,"x_max":0,"o":"m 438 1178 b 281 1018 438 1079 386 1018 b 126 1178 175 1018 128 1079 l 217 1178 b 281 1113 221 1124 242 1113 b 347 1178 321 1113 343 1124 m 550 0 l 396 0 l 369 176 l 182 176 l 156 0 l 15 0 l 171 972 l 394 972 m 201 308 l 349 308 l 275 800 "},"ă":{"ha":565,"x_min":0,"x_max":0,"o":"m 438 1178 b 281 1018 438 1079 386 1018 b 126 1178 175 1018 128 1079 l 217 1178 b 281 1113 221 1124 242 1113 b 347 1178 321 1113 343 1124 m 550 0 l 396 0 l 369 176 l 182 176 l 156 0 l 15 0 l 171 972 l 394 972 m 201 308 l 349 308 l 275 800 "},"Ą":{"ha":565,"x_min":0,"x_max":0,"o":"m 550 0 l 493 0 b 451 -81 458 -29 451 -60 b 500 -119 451 -107 474 -119 b 531 -117 514 -119 524 -118 b 550 -111 536 -115 543 -112 l 550 -189 b 456 -204 518 -201 494 -204 b 335 -118 382 -204 335 -175 b 400 -17 335 -79 357 -46 l 369 176 l 182 176 l 156 0 l 15 0 l 171 972 l 394 972 m 201 308 l 349 308 l 275 800 "},"ą":{"ha":565,"x_min":0,"x_max":0,"o":"m 550 0 l 493 0 b 451 -81 458 -29 451 -60 b 500 -119 451 -107 474 -119 b 531 -117 514 -119 524 -118 b 550 -111 536 -115 543 -112 l 550 -189 b 456 -204 518 -201 494 -204 b 335 -118 382 -204 335 -175 b 400 -17 335 -79 357 -46 l 369 176 l 182 176 l 156 0 l 15 0 l 171 972 l 394 972 m 201 308 l 349 308 l 275 800 "},"Ć":{"ha":536,"x_min":0,"x_max":0,"o":"m 435 1178 l 293 1024 l 190 1024 l 285 1178 m 499 363 l 499 233 b 271 -11 499 76 421 -11 b 43 233 121 -11 43 76 l 43 739 b 271 983 43 896 121 983 b 499 739 421 983 499 896 l 499 644 l 354 644 l 354 749 b 275 844 354 819 324 844 b 196 749 226 844 196 819 l 196 224 b 275 129 196 153 226 129 b 354 224 324 129 354 153 l 354 363 "},"ć":{"ha":536,"x_min":0,"x_max":0,"o":"m 435 1178 l 293 1024 l 190 1024 l 285 1178 m 499 363 l 499 233 b 271 -11 499 76 421 -11 b 43 233 121 -11 43 76 l 43 739 b 271 983 43 896 121 983 b 499 739 421 983 499 896 l 499 644 l 354 644 l 354 749 b 275 844 354 819 324 844 b 196 749 226 844 196 819 l 196 224 b 275 129 196 153 226 129 b 354 224 324 129 354 153 l 354 363 "},"Ĉ":{"ha":536,"x_min":0,"x_max":0,"o":"m 78 1024 l 201 1178 l 339 1178 l 463 1024 l 332 1024 l 269 1100 l 208 1024 m 499 363 l 499 233 b 271 -11 499 76 421 -11 b 43 233 121 -11 43 76 l 43 739 b 271 983 43 896 121 983 b 499 739 421 983 499 896 l 499 644 l 354 644 l 354 749 b 275 844 354 819 324 844 b 196 749 226 844 196 819 l 196 224 b 275 129 196 153 226 129 b 354 224 324 129 354 153 l 354 363 "},"ĉ":{"ha":536,"x_min":0,"x_max":0,"o":"m 78 1024 l 201 1178 l 339 1178 l 463 1024 l 332 1024 l 269 1100 l 208 1024 m 499 363 l 499 233 b 271 -11 499 76 421 -11 b 43 233 121 -11 43 76 l 43 739 b 271 983 43 896 121 983 b 499 739 421 983 499 896 l 499 644 l 354 644 l 354 749 b 275 844 354 819 324 844 b 196 749 226 844 196 819 l 196 224 b 275 129 196 153 226 129 b 354 224 324 129 354 153 l 354 363 "},"Ċ":{"ha":536,"x_min":0,"x_max":0,"o":"m 338 1157 l 338 1024 l 204 1024 l 204 1157 m 499 363 l 499 233 b 271 -11 499 76 421 -11 b 43 233 121 -11 43 76 l 43 739 b 271 983 43 896 121 983 b 499 739 421 983 499 896 l 499 644 l 354 644 l 354 749 b 275 844 354 819 324 844 b 196 749 226 844 196 819 l 196 224 b 275 129 196 153 226 129 b 354 224 324 129 354 153 l 354 363 "},"ċ":{"ha":536,"x_min":0,"x_max":0,"o":"m 338 1157 l 338 1024 l 204 1024 l 204 1157 m 499 363 l 499 233 b 271 -11 499 76 421 -11 b 43 233 121 -11 43 76 l 43 739 b 271 983 43 896 121 983 b 499 739 421 983 499 896 l 499 644 l 354 644 l 354 749 b 275 844 354 819 324 844 b 196 749 226 844 196 819 l 196 224 b 275 129 196 153 226 129 b 354 224 324 129 354 153 l 354 363 "},"Č":{"ha":536,"x_min":0,"x_max":0,"o":"m 208 1178 l 269 1100 l 332 1178 l 463 1178 l 339 1024 l 201 1024 l 78 1178 m 499 363 l 499 233 b 271 -11 499 76 421 -11 b 43 233 121 -11 43 76 l 43 739 b 271 983 43 896 121 983 b 499 739 421 983 499 896 l 499 644 l 354 644 l 354 749 b 275 844 354 819 324 844 b 196 749 226 844 196 819 l 196 224 b 275 129 196 153 226 129 b 354 224 324 129 354 153 l 354 363 "},"č":{"ha":536,"x_min":0,"x_max":0,"o":"m 208 1178 l 269 1100 l 332 1178 l 463 1178 l 339 1024 l 201 1024 l 78 1178 m 499 363 l 499 233 b 271 -11 499 76 421 -11 b 43 233 121 -11 43 76 l 43 739 b 271 983 43 896 121 983 b 499 739 421 983 499 896 l 499 644 l 354 644 l 354 749 b 275 844 354 819 324 844 b 196 749 226 844 196 819 l 196 224 b 275 129 196 153 226 129 b 354 224 324 129 354 153 l 354 363 "},"Ď":{"ha":567,"x_min":0,"x_max":0,"o":"m 208 1178 l 269 1100 l 332 1178 l 463 1178 l 339 1024 l 201 1024 l 78 1178 m 56 972 l 297 972 b 525 732 451 972 525 889 l 525 240 b 297 0 525 83 451 0 l 56 0 m 208 833 l 208 139 l 294 139 b 372 233 343 139 372 163 l 372 739 b 294 833 372 810 343 833 "},"ď":{"ha":567,"x_min":0,"x_max":0,"o":"m 208 1178 l 269 1100 l 332 1178 l 463 1178 l 339 1024 l 201 1024 l 78 1178 m 56 972 l 297 972 b 525 732 451 972 525 889 l 525 240 b 297 0 525 83 451 0 l 56 0 m 208 833 l 208 139 l 294 139 b 372 233 343 139 372 163 l 372 739 b 294 833 372 810 343 833 "},"Đ":{"ha":567,"x_min":0,"x_max":0,"o":"m 56 424 l 6 424 l 6 549 l 56 549 l 56 972 l 297 972 b 525 732 451 972 525 889 l 525 240 b 297 0 525 83 451 0 l 56 0 m 208 833 l 208 549 l 303 549 l 303 424 l 208 424 l 208 139 l 294 139 b 372 233 343 139 372 163 l 372 739 b 294 833 372 810 343 833 "},"đ":{"ha":567,"x_min":0,"x_max":0,"o":"m 56 424 l 6 424 l 6 549 l 56 549 l 56 972 l 297 972 b 525 732 451 972 525 889 l 525 240 b 297 0 525 83 451 0 l 56 0 m 208 833 l 208 549 l 303 549 l 303 424 l 208 424 l 208 139 l 294 139 b 372 233 343 139 372 163 l 372 739 b 294 833 372 810 343 833 "},"Ē":{"ha":511,"x_min":0,"x_max":0,"o":"m 421 1138 l 421 1029 l 101 1029 l 101 1138 m 208 563 l 418 563 l 418 424 l 208 424 l 208 139 l 472 139 l 472 0 l 56 0 l 56 972 l 472 972 l 472 833 l 208 833 "},"ē":{"ha":511,"x_min":0,"x_max":0,"o":"m 421 1138 l 421 1029 l 101 1029 l 101 1138 m 208 563 l 418 563 l 418 424 l 208 424 l 208 139 l 472 139 l 472 0 l 56 0 l 56 972 l 472 972 l 472 833 l 208 833 "},"Ĕ":{"ha":511,"x_min":0,"x_max":0,"o":"m 417 1178 b 260 1018 417 1079 365 1018 b 106 1178 154 1018 107 1079 l 196 1178 b 260 1113 200 1124 221 1113 b 326 1178 300 1113 322 1124 m 208 563 l 418 563 l 418 424 l 208 424 l 208 139 l 472 139 l 472 0 l 56 0 l 56 972 l 472 972 l 472 833 l 208 833 "},"ĕ":{"ha":511,"x_min":0,"x_max":0,"o":"m 417 1178 b 260 1018 417 1079 365 1018 b 106 1178 154 1018 107 1079 l 196 1178 b 260 1113 200 1124 221 1113 b 326 1178 300 1113 322 1124 m 208 563 l 418 563 l 418 424 l 208 424 l 208 139 l 472 139 l 472 0 l 56 0 l 56 972 l 472 972 l 472 833 l 208 833 "},"Ė":{"ha":511,"x_min":0,"x_max":0,"o":"m 328 1157 l 328 1024 l 194 1024 l 194 1157 m 208 563 l 418 563 l 418 424 l 208 424 l 208 139 l 472 139 l 472 0 l 56 0 l 56 972 l 472 972 l 472 833 l 208 833 "},"ė":{"ha":511,"x_min":0,"x_max":0,"o":"m 328 1157 l 328 1024 l 194 1024 l 194 1157 m 208 563 l 418 563 l 418 424 l 208 424 l 208 139 l 472 139 l 472 0 l 56 0 l 56 972 l 472 972 l 472 833 l 208 833 "},"Ę":{"ha":511,"x_min":0,"x_max":0,"o":"m 208 563 l 418 563 l 418 424 l 208 424 l 208 139 l 472 139 l 472 0 l 415 0 b 374 -81 381 -29 374 -60 b 422 -119 374 -107 396 -119 b 453 -117 436 -119 446 -118 b 472 -111 458 -115 465 -112 l 472 -189 b 378 -204 440 -201 417 -204 b 257 -118 304 -204 257 -175 b 350 0 257 -74 288 -32 l 56 0 l 56 972 l 472 972 l 472 833 l 208 833 "},"ę":{"ha":511,"x_min":0,"x_max":0,"o":"m 208 563 l 418 563 l 418 424 l 208 424 l 208 139 l 472 139 l 472 0 l 415 0 b 374 -81 381 -29 374 -60 b 422 -119 374 -107 396 -119 b 453 -117 436 -119 446 -118 b 472 -111 458 -115 465 -112 l 472 -189 b 378 -204 440 -201 417 -204 b 257 -118 304 -204 257 -175 b 350 0 257 -74 288 -32 l 56 0 l 56 972 l 472 972 l 472 833 l 208 833 "},"Ě":{"ha":511,"x_min":0,"x_max":0,"o":"m 199 1178 l 260 1100 l 322 1178 l 453 1178 l 329 1024 l 192 1024 l 68 1178 m 208 563 l 418 563 l 418 424 l 208 424 l 208 139 l 472 139 l 472 0 l 56 0 l 56 972 l 472 972 l 472 833 l 208 833 "},"ě":{"ha":511,"x_min":0,"x_max":0,"o":"m 199 1178 l 260 1100 l 322 1178 l 453 1178 l 329 1024 l 192 1024 l 68 1178 m 208 563 l 418 563 l 418 424 l 208 424 l 208 139 l 472 139 l 472 0 l 56 0 l 56 972 l 472 972 l 472 833 l 208 833 "},"Ĝ":{"ha":542,"x_min":0,"x_max":0,"o":"m 78 1024 l 201 1178 l 339 1178 l 463 1024 l 332 1024 l 269 1100 l 208 1024 m 285 542 l 499 542 l 499 233 b 271 -11 499 76 421 -11 b 43 233 121 -11 43 76 l 43 739 b 271 983 43 896 121 983 b 499 739 421 983 499 896 l 499 644 l 354 644 l 354 749 b 275 844 354 819 324 844 b 196 749 226 844 196 819 l 196 224 b 275 129 196 153 226 129 b 354 224 324 129 354 153 l 354 403 l 285 403 "},"ĝ":{"ha":542,"x_min":0,"x_max":0,"o":"m 78 1024 l 201 1178 l 339 1178 l 463 1024 l 332 1024 l 269 1100 l 208 1024 m 285 542 l 499 542 l 499 233 b 271 -11 499 76 421 -11 b 43 233 121 -11 43 76 l 43 739 b 271 983 43 896 121 983 b 499 739 421 983 499 896 l 499 644 l 354 644 l 354 749 b 275 844 354 819 324 844 b 196 749 226 844 196 819 l 196 224 b 275 129 196 153 226 129 b 354 224 324 129 354 153 l 354 403 l 285 403 "},"Ğ":{"ha":542,"x_min":0,"x_max":0,"o":"m 425 1178 b 268 1018 425 1079 374 1018 b 114 1178 163 1018 115 1079 l 204 1178 b 268 1113 208 1124 229 1113 b 335 1178 308 1113 331 1124 m 285 542 l 499 542 l 499 233 b 271 -11 499 76 421 -11 b 43 233 121 -11 43 76 l 43 739 b 271 983 43 896 121 983 b 499 739 421 983 499 896 l 499 644 l 354 644 l 354 749 b 275 844 354 819 324 844 b 196 749 226 844 196 819 l 196 224 b 275 129 196 153 226 129 b 354 224 324 129 354 153 l 354 403 l 285 403 "},"ğ":{"ha":542,"x_min":0,"x_max":0,"o":"m 425 1178 b 268 1018 425 1079 374 1018 b 114 1178 163 1018 115 1079 l 204 1178 b 268 1113 208 1124 229 1113 b 335 1178 308 1113 331 1124 m 285 542 l 499 542 l 499 233 b 271 -11 499 76 421 -11 b 43 233 121 -11 43 76 l 43 739 b 271 983 43 896 121 983 b 499 739 421 983 499 896 l 499 644 l 354 644 l 354 749 b 275 844 354 819 324 844 b 196 749 226 844 196 819 l 196 224 b 275 129 196 153 226 129 b 354 224 324 129 354 153 l 354 403 l 285 403 "},"Ġ":{"ha":542,"x_min":0,"x_max":0,"o":"m 336 1157 l 336 1024 l 203 1024 l 203 1157 m 285 542 l 499 542 l 499 233 b 271 -11 499 76 421 -11 b 43 233 121 -11 43 76 l 43 739 b 271 983 43 896 121 983 b 499 739 421 983 499 896 l 499 644 l 354 644 l 354 749 b 275 844 354 819 324 844 b 196 749 226 844 196 819 l 196 224 b 275 129 196 153 226 129 b 354 224 324 129 354 153 l 354 403 l 285 403 "},"ġ":{"ha":542,"x_min":0,"x_max":0,"o":"m 336 1157 l 336 1024 l 203 1024 l 203 1157 m 285 542 l 499 542 l 499 233 b 271 -11 499 76 421 -11 b 43 233 121 -11 43 76 l 43 739 b 271 983 43 896 121 983 b 499 739 421 983 499 896 l 499 644 l 354 644 l 354 749 b 275 844 354 819 324 844 b 196 749 226 844 196 819 l 196 224 b 275 129 196 153 226 129 b 354 224 324 129 354 153 l 354 403 l 285 403 "},"Ĥ":{"ha":593,"x_min":0,"x_max":0,"o":"m 104 1024 l 228 1178 l 365 1178 l 489 1024 l 358 1024 l 296 1100 l 235 1024 m 208 0 l 56 0 l 56 972 l 208 972 l 208 556 l 382 556 l 382 972 l 538 972 l 538 0 l 382 0 l 382 417 l 208 417 "},"ĥ":{"ha":593,"x_min":0,"x_max":0,"o":"m 104 1024 l 228 1178 l 365 1178 l 489 1024 l 358 1024 l 296 1100 l 235 1024 m 208 0 l 56 0 l 56 972 l 208 972 l 208 556 l 382 556 l 382 972 l 538 972 l 538 0 l 382 0 l 382 417 l 208 417 "},"Ħ":{"ha":607,"x_min":0,"x_max":0,"o":"m 215 0 l 63 0 l 63 697 l 14 697 l 14 811 l 63 811 l 63 972 l 215 972 l 215 811 l 389 811 l 389 972 l 544 972 l 544 811 l 593 811 l 593 697 l 544 697 l 544 0 l 389 0 l 389 417 l 215 417 m 389 556 l 389 697 l 215 697 l 215 556 "},"ħ":{"ha":607,"x_min":0,"x_max":0,"o":"m 215 0 l 63 0 l 63 697 l 14 697 l 14 811 l 63 811 l 63 972 l 215 972 l 215 811 l 389 811 l 389 972 l 544 972 l 544 811 l 593 811 l 593 697 l 544 697 l 544 0 l 389 0 l 389 417 l 215 417 m 389 556 l 389 697 l 215 697 l 215 556 "},"Ĩ":{"ha":264,"x_min":0,"x_max":0,"o":"m 188 1129 b 247 1169 214 1129 231 1135 l 321 1118 b 203 1024 294 1047 251 1024 b 135 1042 174 1024 154 1033 b 78 1058 115 1050 99 1058 b 18 1018 51 1058 35 1053 l -56 1069 b 63 1164 -29 1140 14 1164 b 132 1147 92 1164 113 1156 b 188 1129 151 1139 167 1129 m 56 972 l 208 972 l 208 0 l 56 0 "},"ĩ":{"ha":264,"x_min":0,"x_max":0,"o":"m 188 1129 b 247 1169 214 1129 231 1135 l 321 1118 b 203 1024 294 1047 251 1024 b 135 1042 174 1024 154 1033 b 78 1058 115 1050 99 1058 b 18 1018 51 1058 35 1053 l -56 1069 b 63 1164 -29 1140 14 1164 b 132 1147 92 1164 113 1156 b 188 1129 151 1139 167 1129 m 56 972 l 208 972 l 208 0 l 56 0 "},"Ī":{"ha":264,"x_min":0,"x_max":0,"o":"m 292 1138 l 292 1029 l -28 1029 l -28 1138 m 56 972 l 208 972 l 208 0 l 56 0 "},"ī":{"ha":264,"x_min":0,"x_max":0,"o":"m 292 1138 l 292 1029 l -28 1029 l -28 1138 m 56 972 l 208 972 l 208 0 l 56 0 "},"Ĭ":{"ha":264,"x_min":0,"x_max":0,"o":"m 288 1178 b 131 1018 288 1079 236 1018 b -24 1178 25 1018 -22 1079 l 67 1178 b 131 1113 71 1124 92 1113 b 197 1178 171 1113 193 1124 m 56 972 l 208 972 l 208 0 l 56 0 "},"ĭ":{"ha":264,"x_min":0,"x_max":0,"o":"m 288 1178 b 131 1018 288 1079 236 1018 b -24 1178 25 1018 -22 1079 l 67 1178 b 131 1113 71 1124 92 1113 b 197 1178 171 1113 193 1124 m 56 972 l 208 972 l 208 0 l 56 0 "},"Į":{"ha":264,"x_min":0,"x_max":0,"o":"m 56 972 l 208 972 l 208 0 l 181 0 b 139 -81 146 -29 139 -60 b 188 -119 139 -107 161 -119 b 218 -117 201 -119 211 -118 b 238 -111 224 -115 231 -112 l 238 -189 b 143 -204 206 -201 182 -204 b 22 -118 69 -204 22 -175 b 115 0 22 -74 53 -32 l 56 0 "},"į":{"ha":264,"x_min":0,"x_max":0,"o":"m 56 972 l 208 972 l 208 0 l 181 0 b 139 -81 146 -29 139 -60 b 188 -119 139 -107 161 -119 b 218 -117 201 -119 211 -118 b 238 -111 224 -115 231 -112 l 238 -189 b 143 -204 206 -201 182 -204 b 22 -118 69 -204 22 -175 b 115 0 22 -74 53 -32 l 56 0 "},"İ":{"ha":264,"x_min":0,"x_max":0,"o":"m 199 1157 l 199 1024 l 65 1024 l 65 1157 m 56 972 l 208 972 l 208 0 l 56 0 "},"ı":{"ha":264,"x_min":0,"x_max":0,"o":"m 56 972 l 208 972 l 208 0 l 56 0 "},"Ĳ":{"ha":619,"x_min":0,"x_max":0,"o":"m 56 972 l 208 972 l 208 0 l 56 0 m 278 139 b 304 138 286 138 294 138 l 331 138 b 418 231 379 138 418 154 l 418 972 l 571 972 l 571 242 b 504 47 571 143 544 83 b 351 -3 464 11 408 -3 l 314 -3 b 278 0 303 -3 290 -1 "},"ĳ":{"ha":619,"x_min":0,"x_max":0,"o":"m 56 972 l 208 972 l 208 0 l 56 0 m 278 139 b 304 138 286 138 294 138 l 331 138 b 418 231 379 138 418 154 l 418 972 l 571 972 l 571 242 b 504 47 571 143 544 83 b 351 -3 464 11 408 -3 l 314 -3 b 278 0 303 -3 290 -1 "},"Ĵ":{"ha":356,"x_min":0,"x_max":0,"o":"m 13 1024 l 136 1178 l 274 1178 l 397 1024 l 267 1024 l 204 1100 l 143 1024 m 14 139 b 40 138 22 138 31 138 l 67 138 b 154 231 115 138 154 154 l 154 972 l 307 972 l 307 242 b 240 47 307 143 281 83 b 88 -3 200 11 144 -3 l 50 -3 b 14 0 39 -3 26 -1 "},"ĵ":{"ha":356,"x_min":0,"x_max":0,"o":"m 13 1024 l 136 1178 l 274 1178 l 397 1024 l 267 1024 l 204 1100 l 143 1024 m 14 139 b 40 138 22 138 31 138 l 67 138 b 154 231 115 138 154 154 l 154 972 l 307 972 l 307 242 b 240 47 307 143 281 83 b 88 -3 200 11 144 -3 l 50 -3 b 14 0 39 -3 26 -1 "},"ĸ":{"ha":575,"x_min":0,"x_max":0,"o":"m 256 388 l 208 299 l 208 0 l 56 0 l 56 972 l 208 972 l 208 549 l 408 972 l 561 972 l 349 539 l 561 0 l 404 0 "},"Ĺ":{"ha":471,"x_min":0,"x_max":0,"o":"m 344 1178 l 203 1024 l 100 1024 l 194 1178 m 56 972 l 208 972 l 208 139 l 460 139 l 460 0 l 56 0 "},"ĺ":{"ha":471,"x_min":0,"x_max":0,"o":"m 344 1178 l 203 1024 l 100 1024 l 194 1178 m 56 972 l 208 972 l 208 139 l 460 139 l 460 0 l 56 0 "},"Ľ":{"ha":471,"x_min":0,"x_max":0,"o":"m 56 972 l 208 972 l 208 139 l 460 139 l 460 0 l 56 0 m 293 825 l 293 972 l 440 972 l 440 840 l 374 686 l 311 686 l 351 825 "},"ľ":{"ha":471,"x_min":0,"x_max":0,"o":"m 56 972 l 208 972 l 208 139 l 460 139 l 460 0 l 56 0 m 293 825 l 293 972 l 440 972 l 440 840 l 374 686 l 311 686 l 351 825 "},"Ŀ":{"ha":471,"x_min":0,"x_max":0,"o":"m 56 972 l 208 972 l 208 139 l 460 139 l 460 0 l 56 0 m 439 560 l 439 413 l 292 413 l 292 560 "},"ŀ":{"ha":471,"x_min":0,"x_max":0,"o":"m 56 972 l 208 972 l 208 139 l 460 139 l 460 0 l 56 0 m 439 560 l 439 413 l 292 413 l 292 560 "},"Ł":{"ha":483,"x_min":0,"x_max":0,"o":"m 0 271 l 68 343 l 68 972 l 221 972 l 221 507 l 389 688 l 389 549 l 221 368 l 221 139 l 472 139 l 472 0 l 68 0 l 68 204 l 0 132 "},"ł":{"ha":483,"x_min":0,"x_max":0,"o":"m 0 271 l 68 343 l 68 972 l 221 972 l 221 507 l 389 688 l 389 549 l 221 368 l 221 139 l 472 139 l 472 0 l 68 0 l 68 204 l 0 132 "},"Ń":{"ha":593,"x_min":0,"x_max":0,"o":"m 460 1178 l 318 1024 l 215 1024 l 310 1178 m 192 704 l 192 0 l 54 0 l 54 972 l 246 972 l 403 390 l 403 972 l 539 972 l 539 0 l 382 0 "},"ń":{"ha":593,"x_min":0,"x_max":0,"o":"m 460 1178 l 318 1024 l 215 1024 l 310 1178 m 192 704 l 192 0 l 54 0 l 54 972 l 246 972 l 403 390 l 403 972 l 539 972 l 539 0 l 382 0 "},"Ň":{"ha":593,"x_min":0,"x_max":0,"o":"m 235 1178 l 296 1100 l 358 1178 l 489 1178 l 365 1024 l 228 1024 l 104 1178 m 192 704 l 192 0 l 54 0 l 54 972 l 246 972 l 403 390 l 403 972 l 539 972 l 539 0 l 382 0 "},"ň":{"ha":593,"x_min":0,"x_max":0,"o":"m 235 1178 l 296 1100 l 358 1178 l 489 1178 l 365 1024 l 228 1024 l 104 1178 m 192 704 l 192 0 l 54 0 l 54 972 l 246 972 l 403 390 l 403 972 l 539 972 l 539 0 l 382 0 "},"ŉ":{"ha":754,"x_min":0,"x_max":0,"o":"m 7 825 l 7 972 l 154 972 l 154 840 l 88 686 l 25 686 l 65 825 m 353 704 l 353 0 l 215 0 l 215 972 l 407 972 l 564 390 l 564 972 l 700 972 l 700 0 l 543 0 "},"Ō":{"ha":550,"x_min":0,"x_max":0,"o":"m 435 1138 l 435 1029 l 115 1029 l 115 1138 m 43 739 b 275 983 43 896 125 983 b 507 739 425 983 507 896 l 507 233 b 275 -11 507 76 425 -11 b 43 233 125 -11 43 76 m 196 224 b 275 128 196 153 226 128 b 354 224 324 128 354 153 l 354 749 b 275 844 354 819 324 844 b 196 749 226 844 196 819 "},"ō":{"ha":550,"x_min":0,"x_max":0,"o":"m 435 1138 l 435 1029 l 115 1029 l 115 1138 m 43 739 b 275 983 43 896 125 983 b 507 739 425 983 507 896 l 507 233 b 275 -11 507 76 425 -11 b 43 233 125 -11 43 76 m 196 224 b 275 128 196 153 226 128 b 354 224 324 128 354 153 l 354 749 b 275 844 354 819 324 844 b 196 749 226 844 196 819 "},"Ŏ":{"ha":550,"x_min":0,"x_max":0,"o":"m 431 1178 b 274 1018 431 1079 379 1018 b 119 1178 168 1018 121 1079 l 210 1178 b 274 1113 214 1124 235 1113 b 340 1178 314 1113 336 1124 m 43 739 b 275 983 43 896 125 983 b 507 739 425 983 507 896 l 507 233 b 275 -11 507 76 425 -11 b 43 233 125 -11 43 76 m 196 224 b 275 128 196 153 226 128 b 354 224 324 128 354 153 l 354 749 b 275 844 354 819 324 844 b 196 749 226 844 196 819 "},"ŏ":{"ha":550,"x_min":0,"x_max":0,"o":"m 431 1178 b 274 1018 431 1079 379 1018 b 119 1178 168 1018 121 1079 l 210 1178 b 274 1113 214 1124 235 1113 b 340 1178 314 1113 336 1124 m 43 739 b 275 983 43 896 125 983 b 507 739 425 983 507 896 l 507 233 b 275 -11 507 76 425 -11 b 43 233 125 -11 43 76 m 196 224 b 275 128 196 153 226 128 b 354 224 324 128 354 153 l 354 749 b 275 844 354 819 324 844 b 196 749 226 844 196 819 "},"Ő":{"ha":550,"x_min":0,"x_max":0,"o":"m 322 1178 l 207 1024 l 114 1024 l 183 1178 m 504 1178 l 388 1024 l 296 1024 l 364 1178 m 43 739 b 275 983 43 896 125 983 b 507 739 425 983 507 896 l 507 233 b 275 -11 507 76 425 -11 b 43 233 125 -11 43 76 m 196 224 b 275 128 196 153 226 128 b 354 224 324 128 354 153 l 354 749 b 275 844 354 819 324 844 b 196 749 226 844 196 819 "},"ő":{"ha":550,"x_min":0,"x_max":0,"o":"m 322 1178 l 207 1024 l 114 1024 l 183 1178 m 504 1178 l 388 1024 l 296 1024 l 364 1178 m 43 739 b 275 983 43 896 125 983 b 507 739 425 983 507 896 l 507 233 b 275 -11 507 76 425 -11 b 43 233 125 -11 43 76 m 196 224 b 275 128 196 153 226 128 b 354 224 324 128 354 153 l 354 749 b 275 844 354 819 324 844 b 196 749 226 844 196 819 "},"Œ":{"ha":814,"x_min":0,"x_max":0,"o":"m 511 563 l 721 563 l 721 424 l 511 424 l 511 139 l 775 139 l 775 0 l 269 0 b 42 240 115 0 42 83 l 42 732 b 269 972 42 889 115 972 l 775 972 l 775 833 l 511 833 m 358 833 l 272 833 b 194 739 224 833 194 810 l 194 233 b 272 139 194 163 224 139 l 358 139 "},"œ":{"ha":814,"x_min":0,"x_max":0,"o":"m 511 563 l 721 563 l 721 424 l 511 424 l 511 139 l 775 139 l 775 0 l 269 0 b 42 240 115 0 42 83 l 42 732 b 269 972 42 889 115 972 l 775 972 l 775 833 l 511 833 m 358 833 l 272 833 b 194 739 224 833 194 810 l 194 233 b 272 139 194 163 224 139 l 358 139 "},"Ŕ":{"ha":558,"x_min":0,"x_max":0,"o":"m 435 1178 l 293 1024 l 190 1024 l 285 1178 m 375 0 b 369 18 374 7 371 13 b 363 71 365 29 363 44 b 361 119 361 83 361 100 l 361 272 b 261 396 361 363 332 396 l 208 396 l 208 0 l 56 0 l 56 972 l 286 972 b 513 749 446 972 513 899 l 513 672 b 413 475 513 572 479 507 b 514 268 490 443 514 369 l 514 118 b 531 0 514 69 515 38 m 208 833 l 208 535 l 268 535 b 360 638 325 535 360 560 l 360 733 b 282 833 360 804 336 833 "},"ŕ":{"ha":558,"x_min":0,"x_max":0,"o":"m 435 1178 l 293 1024 l 190 1024 l 285 1178 m 375 0 b 369 18 374 7 371 13 b 363 71 365 29 363 44 b 361 119 361 83 361 100 l 361 272 b 261 396 361 363 332 396 l 208 396 l 208 0 l 56 0 l 56 972 l 286 972 b 513 749 446 972 513 899 l 513 672 b 413 475 513 572 479 507 b 514 268 490 443 514 369 l 514 118 b 531 0 514 69 515 38 m 208 833 l 208 535 l 268 535 b 360 638 325 535 360 560 l 360 733 b 282 833 360 804 336 833 "},"Ř":{"ha":558,"x_min":0,"x_max":0,"o":"m 208 1178 l 269 1100 l 332 1178 l 463 1178 l 339 1024 l 201 1024 l 78 1178 m 375 0 b 369 18 374 7 371 13 b 363 71 365 29 363 44 b 361 119 361 83 361 100 l 361 272 b 261 396 361 363 332 396 l 208 396 l 208 0 l 56 0 l 56 972 l 286 972 b 513 749 446 972 513 899 l 513 672 b 413 475 513 572 479 507 b 514 268 490 443 514 369 l 514 118 b 531 0 514 69 515 38 m 208 833 l 208 535 l 268 535 b 360 638 325 535 360 560 l 360 733 b 282 833 360 804 336 833 "},"ř":{"ha":558,"x_min":0,"x_max":0,"o":"m 208 1178 l 269 1100 l 332 1178 l 463 1178 l 339 1024 l 201 1024 l 78 1178 m 375 0 b 369 18 374 7 371 13 b 363 71 365 29 363 44 b 361 119 361 83 361 100 l 361 272 b 261 396 361 363 332 396 l 208 396 l 208 0 l 56 0 l 56 972 l 286 972 b 513 749 446 972 513 899 l 513 672 b 413 475 513 572 479 507 b 514 268 490 443 514 369 l 514 118 b 531 0 514 69 515 38 m 208 833 l 208 535 l 268 535 b 360 638 325 535 360 560 l 360 733 b 282 833 360 804 336 833 "},"Ś":{"ha":519,"x_min":0,"x_max":0,"o":"m 424 1178 l 282 1024 l 179 1024 l 274 1178 m 36 739 b 261 983 36 896 111 983 b 486 739 411 983 486 896 l 486 708 l 342 708 l 342 749 b 265 844 342 819 314 844 b 189 749 217 844 189 819 b 267 589 189 682 222 633 b 339 521 289 565 313 543 b 465 354 389 475 436 422 b 488 233 481 319 488 279 b 260 -11 488 76 410 -11 b 32 233 110 -11 32 76 l 32 293 l 176 293 l 176 224 b 256 129 176 153 207 129 b 335 224 304 129 335 153 b 257 385 335 290 301 339 b 186 453 235 407 211 429 b 58 618 135 497 88 550 b 36 739 43 653 36 693 "},"ś":{"ha":519,"x_min":0,"x_max":0,"o":"m 424 1178 l 282 1024 l 179 1024 l 274 1178 m 36 739 b 261 983 36 896 111 983 b 486 739 411 983 486 896 l 486 708 l 342 708 l 342 749 b 265 844 342 819 314 844 b 189 749 217 844 189 819 b 267 589 189 682 222 633 b 339 521 289 565 313 543 b 465 354 389 475 436 422 b 488 233 481 319 488 279 b 260 -11 488 76 410 -11 b 32 233 110 -11 32 76 l 32 293 l 176 293 l 176 224 b 256 129 176 153 207 129 b 335 224 304 129 335 153 b 257 385 335 290 301 339 b 186 453 235 407 211 429 b 58 618 135 497 88 550 b 36 739 43 653 36 693 "},"Ŝ":{"ha":519,"x_min":0,"x_max":0,"o":"m 67 1024 l 190 1178 l 328 1178 l 451 1024 l 321 1024 l 258 1100 l 197 1024 m 36 739 b 261 983 36 896 111 983 b 486 739 411 983 486 896 l 486 708 l 342 708 l 342 749 b 265 844 342 819 314 844 b 189 749 217 844 189 819 b 267 589 189 682 222 633 b 339 521 289 565 313 543 b 465 354 389 475 436 422 b 488 233 481 319 488 279 b 260 -11 488 76 410 -11 b 32 233 110 -11 32 76 l 32 293 l 176 293 l 176 224 b 256 129 176 153 207 129 b 335 224 304 129 335 153 b 257 385 335 290 301 339 b 186 453 235 407 211 429 b 58 618 135 497 88 550 b 36 739 43 653 36 693 "},"ŝ":{"ha":519,"x_min":0,"x_max":0,"o":"m 67 1024 l 190 1178 l 328 1178 l 451 1024 l 321 1024 l 258 1100 l 197 1024 m 36 739 b 261 983 36 896 111 983 b 486 739 411 983 486 896 l 486 708 l 342 708 l 342 749 b 265 844 342 819 314 844 b 189 749 217 844 189 819 b 267 589 189 682 222 633 b 339 521 289 565 313 543 b 465 354 389 475 436 422 b 488 233 481 319 488 279 b 260 -11 488 76 410 -11 b 32 233 110 -11 32 76 l 32 293 l 176 293 l 176 224 b 256 129 176 153 207 129 b 335 224 304 129 335 153 b 257 385 335 290 301 339 b 186 453 235 407 211 429 b 58 618 135 497 88 550 b 36 739 43 653 36 693 "},"Ş":{"ha":519,"x_min":0,"x_max":0,"o":"m 36 739 b 261 983 36 896 111 983 b 486 739 411 983 486 896 l 486 708 l 342 708 l 342 749 b 265 844 342 819 314 844 b 189 749 217 844 189 819 b 267 589 189 682 222 633 b 339 521 289 565 313 543 b 465 354 389 475 436 422 b 488 233 481 319 488 279 b 285 -10 488 85 418 0 l 285 -54 b 388 -119 353 -54 388 -71 b 349 -189 388 -157 374 -178 b 247 -204 324 -201 288 -204 b 114 -124 171 -204 114 -189 l 114 -110 l 217 -110 l 217 -121 b 247 -149 217 -142 232 -149 b 282 -115 271 -149 282 -137 b 232 -79 282 -92 265 -79 l 218 -79 l 218 -8 b 32 233 94 7 32 93 l 32 293 l 176 293 l 176 224 b 256 129 176 153 207 129 b 335 224 304 129 335 153 b 257 385 335 290 301 339 b 186 453 235 407 211 429 b 58 618 135 497 88 550 b 36 739 43 653 36 693 "},"ş":{"ha":519,"x_min":0,"x_max":0,"o":"m 36 739 b 261 983 36 896 111 983 b 486 739 411 983 486 896 l 486 708 l 342 708 l 342 749 b 265 844 342 819 314 844 b 189 749 217 844 189 819 b 267 589 189 682 222 633 b 339 521 289 565 313 543 b 465 354 389 475 436 422 b 488 233 481 319 488 279 b 285 -10 488 85 418 0 l 285 -54 b 388 -119 353 -54 388 -71 b 349 -189 388 -157 374 -178 b 247 -204 324 -201 288 -204 b 114 -124 171 -204 114 -189 l 114 -110 l 217 -110 l 217 -121 b 247 -149 217 -142 232 -149 b 282 -115 271 -149 282 -137 b 232 -79 282 -92 265 -79 l 218 -79 l 218 -8 b 32 233 94 7 32 93 l 32 293 l 176 293 l 176 224 b 256 129 176 153 207 129 b 335 224 304 129 335 153 b 257 385 335 290 301 339 b 186 453 235 407 211 429 b 58 618 135 497 88 550 b 36 739 43 653 36 693 "},"Š":{"ha":519,"x_min":0,"x_max":0,"o":"m 199 1178 l 260 1100 l 322 1178 l 453 1178 l 329 1024 l 192 1024 l 68 1178 m 36 739 b 261 983 36 896 111 983 b 486 739 411 983 486 896 l 486 708 l 342 708 l 342 749 b 265 844 342 819 314 844 b 189 749 217 844 189 819 b 267 589 189 682 222 633 b 339 521 289 565 313 543 b 465 354 389 475 436 422 b 488 233 481 319 488 279 b 260 -11 488 76 410 -11 b 32 233 110 -11 32 76 l 32 293 l 176 293 l 176 224 b 256 129 176 153 207 129 b 335 224 304 129 335 153 b 257 385 335 290 301 339 b 186 453 235 407 211 429 b 58 618 135 497 88 550 b 36 739 43 653 36 693 "},"š":{"ha":519,"x_min":0,"x_max":0,"o":"m 197 1178 l 258 1100 l 321 1178 l 451 1178 l 328 1024 l 190 1024 l 67 1178 m 36 739 b 261 983 36 896 111 983 b 486 739 411 983 486 896 l 486 708 l 342 708 l 342 749 b 265 844 342 819 314 844 b 189 749 217 844 189 819 b 267 589 189 682 222 633 b 339 521 289 565 313 543 b 465 354 389 475 436 422 b 488 233 481 319 488 279 b 260 -11 488 76 410 -11 b 32 233 110 -11 32 76 l 32 293 l 176 293 l 176 224 b 256 129 176 153 207 129 b 335 224 304 129 335 153 b 257 385 335 290 301 339 b 186 453 235 407 211 429 b 58 618 135 497 88 550 b 36 739 43 653 36 693 "},"Ť":{"ha":494,"x_min":0,"x_max":0,"o":"m 185 1178 l 246 1100 l 308 1178 l 439 1178 l 315 1024 l 178 1024 l 54 1178 m 11 972 l 483 972 l 483 833 l 324 833 l 324 0 l 171 0 l 171 833 l 11 833 "},"ť":{"ha":494,"x_min":0,"x_max":0,"o":"m 185 1178 l 246 1100 l 308 1178 l 439 1178 l 315 1024 l 178 1024 l 54 1178 m 11 972 l 483 972 l 483 833 l 324 833 l 324 0 l 171 0 l 171 833 l 11 833 "},"Ŧ":{"ha":494,"x_min":0,"x_max":0,"o":"m 171 676 l 171 833 l 11 833 l 11 972 l 483 972 l 483 833 l 324 833 l 324 676 l 415 676 l 415 563 l 324 563 l 324 0 l 171 0 l 171 563 l 79 563 l 79 676 "},"ŧ":{"ha":494,"x_min":0,"x_max":0,"o":"m 171 676 l 171 833 l 11 833 l 11 972 l 483 972 l 483 833 l 324 833 l 324 676 l 415 676 l 415 563 l 324 563 l 324 0 l 171 0 l 171 563 l 79 563 l 79 676 "},"Ũ":{"ha":553,"x_min":0,"x_max":0,"o":"m 333 1129 b 393 1169 360 1129 376 1135 l 467 1118 b 349 1024 440 1047 397 1024 b 281 1042 319 1024 300 1033 b 224 1058 261 1050 244 1058 b 164 1018 197 1058 181 1053 l 90 1069 b 208 1164 117 1140 160 1164 b 278 1147 238 1164 258 1156 b 333 1129 297 1139 313 1129 m 201 972 l 201 222 b 281 128 201 151 232 128 b 360 222 329 128 360 151 l 360 972 l 504 972 l 504 232 b 276 -12 504 75 426 -12 b 49 232 126 -12 49 75 l 49 972 "},"ũ":{"ha":553,"x_min":0,"x_max":0,"o":"m 333 1129 b 393 1169 360 1129 376 1135 l 467 1118 b 349 1024 440 1047 397 1024 b 281 1042 319 1024 300 1033 b 224 1058 261 1050 244 1058 b 164 1018 197 1058 181 1053 l 90 1069 b 208 1164 117 1140 160 1164 b 278 1147 238 1164 258 1156 b 333 1129 297 1139 313 1129 m 201 972 l 201 222 b 281 128 201 151 232 128 b 360 222 329 128 360 151 l 360 972 l 504 972 l 504 232 b 276 -12 504 75 426 -12 b 49 232 126 -12 49 75 l 49 972 "},"Ū":{"ha":553,"x_min":0,"x_max":0,"o":"m 438 1138 l 438 1029 l 118 1029 l 118 1138 m 201 972 l 201 222 b 281 128 201 151 232 128 b 360 222 329 128 360 151 l 360 972 l 504 972 l 504 232 b 276 -12 504 75 426 -12 b 49 232 126 -12 49 75 l 49 972 "},"ū":{"ha":553,"x_min":0,"x_max":0,"o":"m 438 1138 l 438 1029 l 118 1029 l 118 1138 m 201 972 l 201 222 b 281 128 201 151 232 128 b 360 222 329 128 360 151 l 360 972 l 504 972 l 504 232 b 276 -12 504 75 426 -12 b 49 232 126 -12 49 75 l 49 972 "},"Ŭ":{"ha":553,"x_min":0,"x_max":0,"o":"m 433 1178 b 276 1018 433 1079 382 1018 b 122 1178 171 1018 124 1079 l 213 1178 b 276 1113 217 1124 238 1113 b 343 1178 317 1113 339 1124 m 201 972 l 201 222 b 281 128 201 151 232 128 b 360 222 329 128 360 151 l 360 972 l 504 972 l 504 232 b 276 -12 504 75 426 -12 b 49 232 126 -12 49 75 l 49 972 "},"ŭ":{"ha":553,"x_min":0,"x_max":0,"o":"m 433 1178 b 276 1018 433 1079 382 1018 b 122 1178 171 1018 124 1079 l 213 1178 b 276 1113 217 1124 238 1113 b 343 1178 317 1113 339 1124 m 201 972 l 201 222 b 281 128 201 151 232 128 b 360 222 329 128 360 151 l 360 972 l 504 972 l 504 232 b 276 -12 504 75 426 -12 b 49 232 126 -12 49 75 l 49 972 "},"Ů":{"ha":553,"x_min":0,"x_max":0,"o":"m 167 1131 b 278 1242 167 1193 215 1242 b 389 1131 340 1242 389 1193 b 278 1019 389 1068 340 1019 b 167 1131 215 1019 167 1068 m 236 1131 b 278 1089 236 1107 254 1089 b 319 1131 301 1089 319 1107 b 278 1172 319 1154 301 1172 b 236 1131 254 1172 236 1154 m 201 972 l 201 222 b 281 128 201 151 232 128 b 360 222 329 128 360 151 l 360 972 l 504 972 l 504 232 b 276 -12 504 75 426 -12 b 49 232 126 -12 49 75 l 49 972 "},"ů":{"ha":553,"x_min":0,"x_max":0,"o":"m 167 1131 b 278 1242 167 1193 215 1242 b 389 1131 340 1242 389 1193 b 278 1019 389 1068 340 1019 b 167 1131 215 1019 167 1068 m 236 1131 b 278 1089 236 1107 254 1089 b 319 1131 301 1089 319 1107 b 278 1172 319 1154 301 1172 b 236 1131 254 1172 236 1154 m 201 972 l 201 222 b 281 128 201 151 232 128 b 360 222 329 128 360 151 l 360 972 l 504 972 l 504 232 b 276 -12 504 75 426 -12 b 49 232 126 -12 49 75 l 49 972 "},"Ű":{"ha":553,"x_min":0,"x_max":0,"o":"m 325 1178 l 210 1024 l 117 1024 l 186 1178 m 507 1178 l 390 1024 l 299 1024 l 367 1178 m 201 972 l 201 222 b 281 128 201 151 232 128 b 360 222 329 128 360 151 l 360 972 l 504 972 l 504 232 b 276 -12 504 75 426 -12 b 49 232 126 -12 49 75 l 49 972 "},"ű":{"ha":553,"x_min":0,"x_max":0,"o":"m 325 1178 l 210 1024 l 117 1024 l 186 1178 m 507 1178 l 390 1024 l 299 1024 l 367 1178 m 201 972 l 201 222 b 281 128 201 151 232 128 b 360 222 329 128 360 151 l 360 972 l 504 972 l 504 232 b 276 -12 504 75 426 -12 b 49 232 126 -12 49 75 l 49 972 "},"Ų":{"ha":553,"x_min":0,"x_max":0,"o":"m 201 972 l 201 222 b 281 128 201 151 232 128 b 360 222 329 128 360 151 l 360 972 l 504 972 l 504 232 b 417 11 504 150 490 68 b 369 -81 378 -21 369 -60 b 418 -119 369 -107 392 -119 b 449 -117 432 -119 442 -118 b 468 -111 454 -115 461 -112 l 468 -189 b 374 -204 436 -201 413 -204 b 253 -118 300 -204 253 -175 b 333 -7 253 -75 279 -39 b 276 -12 318 -11 299 -12 b 49 232 126 -12 49 75 l 49 972 "},"ų":{"ha":553,"x_min":0,"x_max":0,"o":"m 201 972 l 201 222 b 281 128 201 151 232 128 b 360 222 329 128 360 151 l 360 972 l 504 972 l 504 232 b 417 11 504 150 490 68 b 369 -81 378 -21 369 -60 b 418 -119 369 -107 392 -119 b 449 -117 432 -119 442 -118 b 468 -111 454 -115 461 -112 l 468 -189 b 374 -204 436 -201 413 -204 b 253 -118 300 -204 253 -175 b 333 -7 253 -75 279 -39 b 276 -12 318 -11 299 -12 b 49 232 126 -12 49 75 l 49 972 "},"Ŵ":{"ha":782,"x_min":0,"x_max":0,"o":"m 199 1024 l 322 1178 l 460 1178 l 583 1024 l 453 1024 l 390 1100 l 329 1024 m 394 518 l 339 0 l 129 0 l 21 972 l 169 972 l 251 206 l 325 972 l 472 972 l 549 200 l 628 972 l 761 972 l 653 0 l 450 0 "},"ŵ":{"ha":782,"x_min":0,"x_max":0,"o":"m 199 1024 l 322 1178 l 460 1178 l 583 1024 l 453 1024 l 390 1100 l 329 1024 m 394 518 l 339 0 l 129 0 l 21 972 l 169 972 l 251 206 l 325 972 l 472 972 l 549 200 l 628 972 l 761 972 l 653 0 l 450 0 "},"Ŷ":{"ha":550,"x_min":0,"x_max":0,"o":"m 89 1024 l 213 1178 l 350 1178 l 474 1024 l 343 1024 l 281 1100 l 219 1024 m 199 322 l 6 972 l 165 972 l 282 529 l 399 972 l 544 972 l 351 322 l 351 0 l 199 0 "},"ŷ":{"ha":550,"x_min":0,"x_max":0,"o":"m 89 1024 l 213 1178 l 350 1178 l 474 1024 l 343 1024 l 281 1100 l 219 1024 m 199 322 l 6 972 l 165 972 l 282 529 l 399 972 l 544 972 l 351 322 l 351 0 l 199 0 "},"Ÿ":{"ha":550,"x_min":0,"x_max":0,"o":"m 242 1157 l 242 1024 l 108 1024 l 108 1157 m 453 1157 l 453 1024 l 319 1024 l 319 1157 m 199 322 l 6 972 l 165 972 l 282 529 l 399 972 l 544 972 l 351 322 l 351 0 l 199 0 "},"Ź":{"ha":514,"x_min":0,"x_max":0,"o":"m 422 1178 l 281 1024 l 178 1024 l 272 1178 m 479 972 l 479 836 l 189 139 l 479 139 l 479 0 l 32 0 l 32 136 l 322 833 l 46 833 l 46 972 "},"ź":{"ha":514,"x_min":0,"x_max":0,"o":"m 422 1178 l 281 1024 l 178 1024 l 272 1178 m 479 972 l 479 836 l 189 139 l 479 139 l 479 0 l 32 0 l 32 136 l 322 833 l 46 833 l 46 972 "},"Ż":{"ha":514,"x_min":0,"x_max":0,"o":"m 325 1157 l 325 1024 l 192 1024 l 192 1157 m 479 972 l 479 836 l 189 139 l 479 139 l 479 0 l 32 0 l 32 136 l 322 833 l 46 833 l 46 972 "},"ż":{"ha":514,"x_min":0,"x_max":0,"o":"m 325 1157 l 325 1024 l 192 1024 l 192 1157 m 479 972 l 479 836 l 189 139 l 479 139 l 479 0 l 32 0 l 32 136 l 322 833 l 46 833 l 46 972 "},"Ž":{"ha":514,"x_min":0,"x_max":0,"o":"m 197 1178 l 258 1100 l 321 1178 l 451 1178 l 328 1024 l 190 1024 l 67 1178 m 479 972 l 479 836 l 189 139 l 479 139 l 479 0 l 32 0 l 32 136 l 322 833 l 46 833 l 46 972 "},"ž":{"ha":514,"x_min":0,"x_max":0,"o":"m 197 1178 l 258 1100 l 321 1178 l 451 1178 l 328 1024 l 190 1024 l 67 1178 m 479 972 l 479 836 l 189 139 l 479 139 l 479 0 l 32 0 l 32 136 l 322 833 l 46 833 l 46 972 "},"Ǽ":{"ha":806,"x_min":0,"x_max":0,"o":"m 567 1178 l 425 1024 l 322 1024 l 417 1178 m 350 176 l 196 176 l 151 0 l 6 0 l 265 972 l 767 972 l 767 833 l 503 833 l 503 563 l 713 563 l 713 424 l 503 424 l 503 139 l 767 139 l 767 0 l 350 0 m 350 308 l 350 776 l 231 308 "},"ǽ":{"ha":806,"x_min":0,"x_max":0,"o":"m 567 1178 l 425 1024 l 322 1024 l 417 1178 m 350 176 l 196 176 l 151 0 l 6 0 l 265 972 l 767 972 l 767 833 l 503 833 l 503 563 l 713 563 l 713 424 l 503 424 l 503 139 l 767 139 l 767 0 l 350 0 m 350 308 l 350 776 l 231 308 "},"Ǿ":{"ha":550,"x_min":0,"x_max":0,"o":"m 439 1178 l 297 1024 l 194 1024 l 289 1178 m 43 739 b 275 983 43 896 125 983 b 414 947 331 983 376 971 l 442 1024 l 493 1006 l 457 907 b 507 739 490 867 507 810 l 507 233 b 275 -11 507 76 425 -11 b 136 24 218 -11 171 0 l 108 -51 l 57 -33 l 92 64 b 43 233 60 107 43 163 m 196 349 l 351 778 b 275 844 344 826 315 844 b 196 749 226 844 196 819 m 275 128 b 354 224 324 128 354 153 l 354 624 l 197 194 b 275 128 207 146 232 128 "},"ǿ":{"ha":550,"x_min":0,"x_max":0,"o":"m 439 1178 l 297 1024 l 194 1024 l 289 1178 m 43 739 b 275 983 43 896 125 983 b 414 947 331 983 376 971 l 442 1024 l 493 1006 l 457 907 b 507 739 490 867 507 810 l 507 233 b 275 -11 507 76 425 -11 b 136 24 218 -11 171 0 l 108 -51 l 57 -33 l 92 64 b 43 233 60 107 43 163 m 196 349 l 351 778 b 275 844 344 826 315 844 b 196 749 226 844 196 819 m 275 128 b 354 224 324 128 354 153 l 354 624 l 197 194 b 275 128 207 146 232 128 "},"ȷ":{"ha":356,"x_min":0,"x_max":0,"o":"m 14 139 b 40 138 22 138 31 138 l 67 138 b 154 231 115 138 154 154 l 154 972 l 307 972 l 307 242 b 240 47 307 143 281 83 b 88 -3 200 11 144 -3 l 50 -3 b 14 0 39 -3 26 -1 "},"ʼ":{"ha":258,"x_min":0,"x_max":0,"o":"m 56 825 l 56 972 l 203 972 l 203 840 l 136 686 l 74 686 l 114 825 "},"ˆ":{"ha":347,"x_min":0,"x_max":0,"o":"m -18 1024 l 106 1178 l 243 1178 l 367 1024 l 236 1024 l 174 1100 l 113 1024 "},"ˇ":{"ha":347,"x_min":0,"x_max":0,"o":"m 113 1178 l 174 1100 l 236 1178 l 367 1178 l 243 1024 l 106 1024 l -18 1178 "},"˘":{"ha":347,"x_min":0,"x_max":0,"o":"m 329 1178 b 172 1018 329 1079 278 1018 b 18 1178 67 1018 19 1079 l 108 1178 b 172 1113 113 1124 133 1113 b 239 1178 213 1113 235 1124 "},"˙":{"ha":347,"x_min":0,"x_max":0,"o":"m 240 1157 l 240 1024 l 107 1024 l 107 1157 "},"˚":{"ha":347,"x_min":0,"x_max":0,"o":"m 63 1131 b 174 1242 63 1193 111 1242 b 285 1131 236 1242 285 1193 b 174 1019 285 1068 236 1019 b 63 1131 111 1019 63 1068 m 132 1131 b 174 1089 132 1107 150 1089 b 215 1131 197 1089 215 1107 b 174 1172 215 1154 197 1172 b 132 1131 150 1172 132 1154 "},"˛":{"ha":347,"x_min":0,"x_max":0,"o":"m 231 6 b 182 -81 190 -26 182 -60 b 231 -119 182 -107 204 -119 b 261 -117 244 -119 254 -118 b 281 -111 267 -115 274 -112 l 281 -189 b 186 -204 249 -201 225 -204 b 65 -118 113 -204 65 -175 b 171 6 65 -69 100 -28 "},"˜":{"ha":347,"x_min":0,"x_max":0,"o":"m 229 1129 b 289 1169 256 1129 272 1135 l 363 1118 b 244 1024 336 1047 293 1024 b 176 1042 215 1024 196 1033 b 119 1058 157 1050 140 1058 b 60 1018 93 1058 76 1053 l -14 1069 b 104 1164 13 1140 56 1164 b 174 1147 133 1164 154 1156 b 229 1129 193 1139 208 1129 "},"˝":{"ha":347,"x_min":0,"x_max":0,"o":"m 174 1178 l 58 1024 l -35 1024 l 35 1178 m 356 1178 l 239 1024 l 147 1024 l 215 1178 "},"Ḃ":{"ha":564,"x_min":0,"x_max":0,"o":"m 325 1157 l 325 1024 l 192 1024 l 192 1157 m 286 972 b 513 749 446 972 513 899 l 513 714 b 414 518 513 614 482 550 b 528 310 497 486 528 414 l 528 231 b 296 0 528 81 450 0 l 56 0 l 56 972 m 208 833 l 208 576 l 268 576 b 360 679 325 576 360 601 l 360 733 b 282 833 360 804 336 833 m 208 438 l 208 139 l 296 139 b 375 235 347 139 375 163 l 375 319 b 276 438 375 410 347 438 "},"ḃ":{"ha":564,"x_min":0,"x_max":0,"o":"m 325 1157 l 325 1024 l 192 1024 l 192 1157 m 286 972 b 513 749 446 972 513 899 l 513 714 b 414 518 513 614 482 550 b 528 310 497 486 528 414 l 528 231 b 296 0 528 81 450 0 l 56 0 l 56 972 m 208 833 l 208 576 l 268 576 b 360 679 325 576 360 601 l 360 733 b 282 833 360 804 336 833 m 208 438 l 208 139 l 296 139 b 375 235 347 139 375 163 l 375 319 b 276 438 375 410 347 438 "},"Ḋ":{"ha":567,"x_min":0,"x_max":0,"o":"m 336 1157 l 336 1024 l 203 1024 l 203 1157 m 56 972 l 297 972 b 525 732 451 972 525 889 l 525 240 b 297 0 525 83 451 0 l 56 0 m 208 833 l 208 139 l 294 139 b 372 233 343 139 372 163 l 372 739 b 294 833 372 810 343 833 "},"ḋ":{"ha":567,"x_min":0,"x_max":0,"o":"m 336 1157 l 336 1024 l 203 1024 l 203 1157 m 56 972 l 297 972 b 525 732 451 972 525 889 l 525 240 b 297 0 525 83 451 0 l 56 0 m 208 833 l 208 139 l 294 139 b 372 233 343 139 372 163 l 372 739 b 294 833 372 810 343 833 "},"Ḟ":{"ha":478,"x_min":0,"x_max":0,"o":"m 319 1157 l 319 1024 l 186 1024 l 186 1157 m 208 540 l 406 540 l 406 401 l 208 401 l 208 0 l 56 0 l 56 972 l 460 972 l 460 833 l 208 833 "},"ḟ":{"ha":478,"x_min":0,"x_max":0,"o":"m 319 1157 l 319 1024 l 186 1024 l 186 1157 m 208 540 l 406 540 l 406 401 l 208 401 l 208 0 l 56 0 l 56 972 l 460 972 l 460 833 l 208 833 "},"Ṁ":{"ha":751,"x_min":0,"x_max":0,"o":"m 442 1157 l 442 1024 l 308 1024 l 308 1157 m 379 282 l 483 972 l 696 972 l 696 0 l 551 0 l 551 697 l 446 0 l 301 0 l 188 688 l 188 0 l 54 0 l 54 972 l 267 972 "},"ṁ":{"ha":751,"x_min":0,"x_max":0,"o":"m 442 1157 l 442 1024 l 308 1024 l 308 1157 m 379 282 l 483 972 l 696 972 l 696 0 l 551 0 l 551 697 l 446 0 l 301 0 l 188 688 l 188 0 l 54 0 l 54 972 l 267 972 "},"Ṗ":{"ha":524,"x_min":0,"x_max":0,"o":"m 331 1157 l 331 1024 l 197 1024 l 197 1157 m 281 972 b 508 732 435 972 508 889 l 508 606 b 281 365 508 449 435 365 l 208 365 l 208 0 l 56 0 l 56 972 m 208 833 l 208 504 l 281 504 b 356 596 329 504 356 525 l 356 742 b 281 833 356 813 329 833 "},"ṗ":{"ha":524,"x_min":0,"x_max":0,"o":"m 331 1157 l 331 1024 l 197 1024 l 197 1157 m 281 972 b 508 732 435 972 508 889 l 508 606 b 281 365 508 449 435 365 l 208 365 l 208 0 l 56 0 l 56 972 m 208 833 l 208 504 l 281 504 b 356 596 329 504 356 525 l 356 742 b 281 833 356 813 329 833 "},"Ṡ":{"ha":519,"x_min":0,"x_max":0,"o":"m 326 1157 l 326 1024 l 193 1024 l 193 1157 m 36 739 b 261 983 36 896 111 983 b 486 739 411 983 486 896 l 486 708 l 342 708 l 342 749 b 265 844 342 819 314 844 b 189 749 217 844 189 819 b 267 589 189 682 222 633 b 339 521 289 565 313 543 b 465 354 389 475 436 422 b 488 233 481 319 488 279 b 260 -11 488 76 410 -11 b 32 233 110 -11 32 76 l 32 293 l 176 293 l 176 224 b 256 129 176 153 207 129 b 335 224 304 129 335 153 b 257 385 335 290 301 339 b 186 453 235 407 211 429 b 58 618 135 497 88 550 b 36 739 43 653 36 693 "},"ṡ":{"ha":519,"x_min":0,"x_max":0,"o":"m 326 1157 l 326 1024 l 193 1024 l 193 1157 m 36 739 b 261 983 36 896 111 983 b 486 739 411 983 486 896 l 486 708 l 342 708 l 342 749 b 265 844 342 819 314 844 b 189 749 217 844 189 819 b 267 589 189 682 222 633 b 339 521 289 565 313 543 b 465 354 389 475 436 422 b 488 233 481 319 488 279 b 260 -11 488 76 410 -11 b 32 233 110 -11 32 76 l 32 293 l 176 293 l 176 224 b 256 129 176 153 207 129 b 335 224 304 129 335 153 b 257 385 335 290 301 339 b 186 453 235 407 211 429 b 58 618 135 497 88 550 b 36 739 43 653 36 693 "},"Ṫ":{"ha":494,"x_min":0,"x_max":0,"o":"m 314 1157 l 314 1024 l 181 1024 l 181 1157 m 11 972 l 483 972 l 483 833 l 324 833 l 324 0 l 171 0 l 171 833 l 11 833 "},"ṫ":{"ha":494,"x_min":0,"x_max":0,"o":"m 314 1157 l 314 1024 l 181 1024 l 181 1157 m 11 972 l 483 972 l 483 833 l 324 833 l 324 0 l 171 0 l 171 833 l 11 833 "},"Ẁ":{"ha":782,"x_min":0,"x_max":0,"o":"m 381 1178 l 475 1024 l 365 1024 l 224 1178 m 394 518 l 339 0 l 129 0 l 21 972 l 169 972 l 251 206 l 325 972 l 472 972 l 549 200 l 628 972 l 761 972 l 653 0 l 450 0 "},"ẁ":{"ha":782,"x_min":0,"x_max":0,"o":"m 381 1178 l 475 1024 l 365 1024 l 224 1178 m 394 518 l 339 0 l 129 0 l 21 972 l 169 972 l 251 206 l 325 972 l 472 972 l 549 200 l 628 972 l 761 972 l 653 0 l 450 0 "},"Ẃ":{"ha":782,"x_min":0,"x_max":0,"o":"m 554 1178 l 413 1024 l 310 1024 l 404 1178 m 394 518 l 339 0 l 129 0 l 21 972 l 169 972 l 251 206 l 325 972 l 472 972 l 549 200 l 628 972 l 761 972 l 653 0 l 450 0 "},"ẃ":{"ha":782,"x_min":0,"x_max":0,"o":"m 554 1178 l 413 1024 l 310 1024 l 404 1178 m 394 518 l 339 0 l 129 0 l 21 972 l 169 972 l 251 206 l 325 972 l 472 972 l 549 200 l 628 972 l 761 972 l 653 0 l 450 0 "},"Ẅ":{"ha":782,"x_min":0,"x_max":0,"o":"m 351 1157 l 351 1024 l 218 1024 l 218 1157 m 563 1157 l 563 1024 l 429 1024 l 429 1157 m 394 518 l 339 0 l 129 0 l 21 972 l 169 972 l 251 206 l 325 972 l 472 972 l 549 200 l 628 972 l 761 972 l 653 0 l 450 0 "},"ẅ":{"ha":782,"x_min":0,"x_max":0,"o":"m 351 1157 l 351 1024 l 218 1024 l 218 1157 m 563 1157 l 563 1024 l 429 1024 l 429 1157 m 394 518 l 339 0 l 129 0 l 21 972 l 169 972 l 251 206 l 325 972 l 472 972 l 549 200 l 628 972 l 761 972 l 653 0 l 450 0 "},"Ỳ":{"ha":550,"x_min":0,"x_max":0,"o":"m 271 1178 l 365 1024 l 256 1024 l 114 1178 m 199 322 l 6 972 l 165 972 l 282 529 l 399 972 l 544 972 l 351 322 l 351 0 l 199 0 "},"ỳ":{"ha":550,"x_min":0,"x_max":0,"o":"m 271 1178 l 365 1024 l 256 1024 l 114 1178 m 199 322 l 6 972 l 165 972 l 282 529 l 399 972 l 544 972 l 351 322 l 351 0 l 199 0 "},"‒":{"ha":550,"x_min":0,"x_max":0,"o":"m 0 549 l 550 549 l 550 424 l 0 424 "},"–":{"ha":694,"x_min":0,"x_max":0,"o":"m 0 549 l 694 549 l 694 424 l 0 424 "},"—":{"ha":1389,"x_min":0,"x_max":0,"o":"m 0 549 l 1389 549 l 1389 424 l 0 424 "},"‘":{"ha":258,"x_min":0,"x_max":0,"o":"m 203 833 l 203 686 l 56 686 l 56 818 l 122 972 l 185 972 l 144 833 "},"’":{"ha":258,"x_min":0,"x_max":0,"o":"m 56 825 l 56 972 l 203 972 l 203 840 l 136 686 l 74 686 l 114 825 "},"‚":{"ha":258,"x_min":0,"x_max":0,"o":"m 56 0 l 56 147 l 203 147 l 203 15 l 136 -139 l 74 -139 l 114 0 "},"“":{"ha":461,"x_min":0,"x_max":0,"o":"m 203 833 l 203 686 l 56 686 l 56 818 l 122 972 l 185 972 l 144 833 m 406 833 l 406 686 l 258 686 l 258 818 l 325 972 l 388 972 l 347 833 "},"”":{"ha":461,"x_min":0,"x_max":0,"o":"m 56 825 l 56 972 l 203 972 l 203 840 l 136 686 l 74 686 l 114 825 m 258 825 l 258 972 l 406 972 l 406 840 l 339 686 l 276 686 l 317 825 "},"„":{"ha":461,"x_min":0,"x_max":0,"o":"m 56 0 l 56 147 l 203 147 l 203 15 l 136 -139 l 74 -139 l 114 0 m 258 0 l 258 147 l 406 147 l 406 15 l 339 -139 l 276 -139 l 317 0 "},"†":{"ha":550,"x_min":0,"x_max":0,"o":"m 35 729 l 213 729 l 213 972 l 338 972 l 338 729 l 515 729 l 515 611 l 338 611 l 338 -90 l 213 -90 l 213 611 l 35 611 "},"‡":{"ha":550,"x_min":0,"x_max":0,"o":"m 35 729 l 213 729 l 213 972 l 338 972 l 338 729 l 515 729 l 515 611 l 338 611 l 338 271 l 515 271 l 515 153 l 338 153 l 338 -90 l 213 -90 l 213 153 l 35 153 l 35 271 l 213 271 l 213 611 l 35 611 "},"•":{"ha":550,"x_min":0,"x_max":0,"o":"m 82 486 b 139 624 82 540 104 589 b 275 679 172 657 221 679 b 413 624 329 679 378 657 b 468 486 446 589 468 540 b 413 350 468 432 446 383 b 275 293 378 315 329 293 b 139 350 221 293 172 315 b 82 486 104 383 82 432 "},"…":{"ha":664,"x_min":0,"x_max":0,"o":"m 203 147 l 203 0 l 56 0 l 56 147 m 406 147 l 406 0 l 258 0 l 258 147 m 608 147 l 608 0 l 461 0 l 461 147 "},"‰":{"ha":1226,"x_min":0,"x_max":0,"o":"m 47 824 b 194 979 47 924 99 979 b 342 824 290 979 342 924 l 342 504 b 194 349 342 404 290 349 b 47 504 99 349 47 404 m 578 972 l 668 972 l 285 0 l 194 0 m 144 497 b 194 436 144 457 161 436 b 244 497 226 436 244 454 l 244 831 b 194 892 244 874 226 892 b 144 831 161 892 144 871 m 529 468 b 676 624 529 568 581 624 b 824 468 772 624 824 568 l 824 149 b 676 -7 824 49 772 -7 b 529 149 581 -7 529 49 m 885 468 b 1032 624 885 568 936 624 b 1179 468 1128 624 1179 568 l 1179 149 b 1032 -7 1179 49 1128 -7 b 885 149 936 -7 885 49 m 626 142 b 676 81 626 101 643 81 b 726 142 708 81 726 99 l 726 475 b 676 536 726 518 708 536 b 626 475 643 536 626 515 m 982 142 b 1032 81 982 101 999 81 b 1082 142 1064 81 1082 99 l 1082 475 b 1032 536 1082 518 1064 536 b 982 475 999 536 982 515 "},"‹":{"ha":272,"x_min":0,"x_max":0,"o":"m 250 857 l 168 488 l 250 96 l 106 96 l 22 488 l 106 857 "},"›":{"ha":272,"x_min":0,"x_max":0,"o":"m 167 857 l 250 488 l 167 96 l 22 96 l 104 488 l 22 857 "},"⁄":{"ha":93,"x_min":0,"x_max":0,"o":"m 193 972 l 283 972 l -100 0 l -190 0 "},"⁰":{"ha":389,"x_min":0,"x_max":0,"o":"m 47 956 b 194 1111 47 1056 99 1111 b 342 956 290 1111 342 1056 l 342 636 b 194 481 342 536 290 481 b 47 636 99 481 47 536 m 144 629 b 194 568 144 589 161 568 b 244 629 226 568 244 586 l 244 963 b 194 1024 244 1006 226 1024 b 144 963 161 1024 144 1003 "},"⁴":{"ha":389,"x_min":0,"x_max":0,"o":"m 33 688 l 210 1104 l 315 1104 l 315 688 l 361 688 l 361 599 l 315 599 l 315 488 l 219 488 l 219 599 l 33 599 m 219 688 l 219 915 l 121 688 "},"⁵":{"ha":389,"x_min":0,"x_max":0,"o":"m 143 685 l 143 628 b 193 568 143 583 161 568 b 243 628 225 568 243 583 l 243 763 b 193 824 243 807 225 824 b 143 763 161 824 143 807 l 143 744 l 51 744 l 69 1103 l 325 1103 l 325 1014 l 156 1014 l 149 867 b 233 913 167 897 194 913 b 340 771 304 913 340 861 l 340 633 b 196 478 340 533 292 478 b 51 633 100 478 51 533 l 51 685 "},"⁶":{"ha":389,"x_min":0,"x_max":0,"o":"m 50 951 b 199 1111 50 1056 97 1111 b 343 956 293 1111 343 1056 l 343 940 l 251 940 l 251 963 b 201 1024 251 1007 233 1024 b 147 947 167 1024 147 1007 l 147 835 b 238 889 165 871 194 889 b 344 749 308 889 344 839 l 344 636 b 197 481 344 536 293 481 b 50 636 101 481 50 536 m 197 801 b 147 740 165 801 147 785 l 147 629 b 197 569 147 585 165 569 b 247 629 229 569 247 585 l 247 740 b 197 801 247 785 229 801 "},"⁷":{"ha":389,"x_min":0,"x_max":0,"o":"m 340 1104 l 340 1019 l 197 488 l 100 488 l 242 1017 l 49 1017 l 49 1104 "},"⁸":{"ha":389,"x_min":0,"x_max":0,"o":"m 346 636 b 194 481 346 536 293 481 b 43 636 96 481 43 536 l 43 683 b 103 813 43 743 60 789 b 43 936 63 835 43 876 l 43 956 b 194 1111 43 1056 96 1111 b 346 956 293 1111 346 1056 l 346 936 b 286 813 346 876 326 835 b 346 683 329 789 346 743 m 140 918 b 194 853 140 869 163 853 b 249 918 226 853 249 869 l 249 953 b 194 1024 249 1008 226 1024 b 140 953 163 1024 140 1008 m 140 638 b 194 568 140 583 163 568 b 249 638 226 568 249 583 l 249 696 b 194 765 249 742 231 765 b 140 696 158 765 140 742 "},"⁹":{"ha":389,"x_min":0,"x_max":0,"o":"m 339 640 b 190 481 339 536 292 481 b 46 636 96 481 46 536 l 46 651 l 138 651 l 138 629 b 188 568 138 585 156 568 b 242 644 222 568 242 585 l 242 757 b 151 703 224 721 194 703 b 44 843 81 703 44 753 l 44 956 b 192 1111 44 1056 96 1111 b 339 956 288 1111 339 1056 m 192 790 b 242 851 224 790 242 807 l 242 963 b 192 1022 242 1007 224 1022 b 142 963 160 1022 142 1007 l 142 851 b 192 790 142 807 160 790 "},"₀":{"ha":389,"x_min":0,"x_max":0,"o":"m 47 378 b 194 533 47 478 99 533 b 342 378 290 533 342 478 l 342 58 b 194 -97 342 -42 290 -97 b 47 58 99 -97 47 -42 m 144 51 b 194 -10 144 11 161 -10 b 244 51 226 -10 244 8 l 244 385 b 194 446 244 428 226 446 b 144 385 161 446 144 425 "},"₁":{"ha":278,"x_min":0,"x_max":0,"o":"m 35 449 b 111 472 72 449 94 458 b 143 526 126 486 133 506 l 207 526 l 207 -90 l 110 -90 l 110 381 l 35 381 "},"₂":{"ha":389,"x_min":0,"x_max":0,"o":"m 250 378 b 200 447 250 432 232 447 b 150 386 168 447 150 431 l 150 321 l 58 321 l 58 381 b 203 535 58 481 107 535 b 347 381 299 535 347 481 b 294 215 347 314 325 260 b 244 154 279 193 263 172 b 163 49 210 115 179 82 b 156 -3 154 32 151 15 l 339 -3 l 339 -90 l 58 -90 l 58 -15 b 108 128 58 44 79 89 b 154 182 122 146 138 164 b 236 300 188 217 218 254 b 250 378 246 322 250 349 "},"₃":{"ha":389,"x_min":0,"x_max":0,"o":"m 242 108 b 179 186 242 168 222 186 l 146 186 l 146 274 l 183 274 b 242 340 221 274 242 292 l 242 375 b 192 446 242 431 224 446 b 142 385 160 446 142 428 l 142 346 l 50 346 l 50 378 b 194 533 50 478 99 533 b 339 378 290 533 339 478 l 339 363 b 271 236 339 297 317 254 b 339 107 319 215 339 169 l 339 58 b 194 -97 339 -42 290 -97 b 50 58 99 -97 50 -42 l 50 108 l 142 108 l 142 51 b 192 -10 142 8 160 -10 b 242 61 224 -10 242 6 "},"₄":{"ha":389,"x_min":0,"x_max":0,"o":"m 33 110 l 210 526 l 315 526 l 315 110 l 361 110 l 361 21 l 315 21 l 315 -90 l 219 -90 l 219 21 l 33 21 m 219 110 l 219 338 l 121 110 "},"₅":{"ha":389,"x_min":0,"x_max":0,"o":"m 143 107 l 143 50 b 193 -10 143 6 161 -10 b 243 50 225 -10 243 6 l 243 185 b 193 246 243 229 225 246 b 143 185 161 246 143 229 l 143 167 l 51 167 l 69 525 l 325 525 l 325 436 l 156 436 l 149 289 b 233 335 167 319 194 335 b 340 193 304 335 340 283 l 340 56 b 196 -100 340 -44 292 -100 b 51 56 100 -100 51 -44 l 51 107 "},"₆":{"ha":389,"x_min":0,"x_max":0,"o":"m 50 374 b 199 533 50 478 97 533 b 343 378 293 533 343 478 l 343 363 l 251 363 l 251 385 b 201 446 251 429 233 446 b 147 369 167 446 147 429 l 147 257 b 238 311 165 293 194 311 b 344 171 308 311 344 261 l 344 58 b 197 -97 344 -42 293 -97 b 50 58 101 -97 50 -42 m 197 224 b 147 163 165 224 147 207 l 147 51 b 197 -8 147 7 165 -8 b 247 51 229 -8 247 7 l 247 163 b 197 224 247 207 229 224 "},"₇":{"ha":389,"x_min":0,"x_max":0,"o":"m 340 526 l 340 442 l 197 -90 l 100 -90 l 242 439 l 49 439 l 49 526 "},"₈":{"ha":389,"x_min":0,"x_max":0,"o":"m 346 58 b 194 -97 346 -42 293 -97 b 43 58 96 -97 43 -42 l 43 106 b 103 235 43 165 60 211 b 43 358 63 257 43 299 l 43 378 b 194 533 43 478 96 533 b 346 378 293 533 346 478 l 346 358 b 286 235 346 299 326 257 b 346 106 329 211 346 165 m 140 340 b 194 275 140 292 163 275 b 249 340 226 275 249 292 l 249 375 b 194 446 249 431 226 446 b 140 375 163 446 140 431 m 140 60 b 194 -10 140 6 163 -10 b 249 60 226 -10 249 6 l 249 118 b 194 188 249 164 231 188 b 140 118 158 188 140 164 "},"₉":{"ha":389,"x_min":0,"x_max":0,"o":"m 339 63 b 190 -97 339 -42 292 -97 b 46 58 96 -97 46 -42 l 46 74 l 138 74 l 138 51 b 188 -10 138 7 156 -10 b 242 67 222 -10 242 7 l 242 179 b 151 125 224 143 194 125 b 44 265 81 125 44 175 l 44 378 b 192 533 44 478 96 533 b 339 378 288 533 339 478 m 192 213 b 242 274 224 213 242 229 l 242 385 b 192 444 242 429 224 444 b 142 385 160 444 142 429 l 142 274 b 192 213 142 229 160 213 "},"€":{"ha":550,"x_min":0,"x_max":0,"o":"m 26 604 l 65 604 l 65 739 b 289 983 65 896 139 983 b 513 739 439 983 513 896 l 513 668 l 368 668 l 368 749 b 293 844 368 819 342 844 b 218 749 244 844 218 819 l 218 604 l 432 604 l 432 528 l 218 528 l 218 451 l 432 451 l 432 375 l 218 375 l 218 224 b 293 129 218 153 244 129 b 368 224 342 129 368 153 l 368 311 l 513 311 l 513 233 b 289 -11 513 76 439 -11 b 65 233 139 -11 65 76 l 65 375 l 26 375 l 26 451 l 65 451 l 65 528 l 26 528 "},"₹":{"ha":550,"x_min":0,"x_max":0,"o":"m 281 763 b 164 854 281 833 242 854 l 36 854 l 36 972 l 514 972 l 514 854 l 397 854 b 432 763 415 828 426 797 l 514 763 l 514 644 l 432 644 b 356 489 426 578 399 524 b 199 435 313 454 258 435 l 522 0 l 358 0 l 36 435 l 36 553 l 164 553 b 281 644 242 553 281 574 l 36 644 l 36 763 "},"℗":{"ha":1022,"x_min":0,"x_max":0,"o":"m 28 486 b 167 843 28 631 81 754 b 511 983 253 932 374 983 b 857 843 649 983 771 932 b 994 486 943 754 994 631 b 857 129 994 342 943 218 b 511 -11 771 40 649 -11 b 167 129 374 -11 253 40 b 28 486 81 218 28 342 m 128 486 b 238 200 128 369 169 271 b 511 86 306 128 401 86 b 785 200 621 86 717 128 b 894 486 853 271 894 369 b 785 774 894 603 853 701 b 511 886 717 844 621 886 b 238 774 401 886 306 844 b 128 486 169 701 128 603 m 382 771 l 543 771 b 700 615 653 771 700 721 l 700 538 b 543 382 700 432 653 382 l 488 382 l 488 176 l 382 176 m 594 603 b 538 674 594 650 575 674 l 488 674 l 488 479 l 538 479 b 594 550 575 479 594 503 "},"™":{"ha":814,"x_min":0,"x_max":0,"o":"m 14 972 l 314 972 l 314 883 l 213 883 l 213 478 l 115 478 l 115 883 l 14 883 m 579 625 l 644 972 l 779 972 l 779 478 l 688 478 l 688 829 l 622 478 l 531 478 l 457 826 l 457 478 l 372 478 l 372 972 l 507 972 "},"⅓":{"ha":871,"x_min":0,"x_max":0,"o":"m 90 894 b 167 918 128 894 150 904 b 199 972 182 932 189 951 l 263 972 l 263 356 l 165 356 l 165 826 l 90 826 m 564 972 l 654 972 l 271 0 l 181 0 m 724 199 b 661 276 724 258 704 276 l 628 276 l 628 364 l 665 364 b 724 431 703 364 724 382 l 724 465 b 674 536 724 521 706 536 b 624 475 642 536 624 518 l 624 436 l 532 436 l 532 468 b 676 624 532 568 581 624 b 821 468 772 624 821 568 l 821 453 b 753 326 821 388 799 344 b 821 197 801 306 821 260 l 821 149 b 676 -7 821 49 772 -7 b 532 149 581 -7 532 49 l 532 199 l 624 199 l 624 142 b 674 81 624 99 642 81 b 724 151 706 81 724 96 "},"⅔":{"ha":871,"x_min":0,"x_max":0,"o":"m 250 822 b 200 892 250 876 232 892 b 150 831 168 892 150 875 l 150 765 l 58 765 l 58 825 b 203 979 58 925 107 979 b 347 825 299 979 347 925 b 294 660 347 757 325 704 b 244 599 279 638 263 617 b 163 493 210 560 179 526 b 156 442 154 476 151 460 l 339 442 l 339 354 l 58 354 l 58 429 b 108 572 58 489 79 533 b 154 626 122 590 138 608 b 236 744 188 661 218 699 b 250 822 246 767 250 793 m 596 972 l 686 972 l 303 0 l 213 0 m 724 199 b 661 276 724 258 704 276 l 628 276 l 628 364 l 665 364 b 724 431 703 364 724 382 l 724 465 b 674 536 724 521 706 536 b 624 475 642 536 624 518 l 624 436 l 532 436 l 532 468 b 676 624 532 568 581 624 b 821 468 772 624 821 568 l 821 453 b 753 326 821 388 799 344 b 821 197 801 306 821 260 l 821 149 b 676 -7 821 49 772 -7 b 532 149 581 -7 532 49 l 532 199 l 624 199 l 624 142 b 674 81 624 99 642 81 b 724 151 706 81 724 96 "},"⅛":{"ha":871,"x_min":0,"x_max":0,"o":"m 90 894 b 167 918 128 894 150 904 b 199 972 182 932 189 951 l 263 972 l 263 356 l 165 356 l 165 826 l 90 826 m 564 972 l 654 972 l 271 0 l 181 0 m 828 149 b 676 -7 828 49 775 -7 b 525 149 578 -7 525 49 l 525 196 b 585 325 525 256 542 301 b 525 449 544 347 525 389 l 525 468 b 676 624 525 568 578 624 b 828 468 775 624 828 568 l 828 449 b 768 325 828 389 808 347 b 828 196 811 301 828 256 m 622 431 b 676 365 622 382 644 365 b 731 431 708 365 731 382 l 731 465 b 676 536 731 521 708 536 b 622 465 644 536 622 521 m 622 150 b 676 81 622 96 644 81 b 731 150 708 81 731 96 l 731 208 b 676 278 731 254 713 278 b 622 208 640 278 622 254 "},"⅜":{"ha":871,"x_min":0,"x_max":0,"o":"m 242 554 b 179 632 242 614 222 632 l 146 632 l 146 719 l 183 719 b 242 786 221 719 242 738 l 242 821 b 192 892 242 876 224 892 b 142 831 160 892 142 874 l 142 792 l 50 792 l 50 824 b 194 979 50 924 99 979 b 339 824 290 979 339 924 l 339 808 b 271 682 339 743 317 700 b 339 553 319 661 339 615 l 339 504 b 194 349 339 404 290 349 b 50 504 99 349 50 404 l 50 554 l 142 554 l 142 497 b 192 436 142 454 160 436 b 242 507 224 436 242 451 m 582 972 l 672 972 l 289 0 l 199 0 m 828 149 b 676 -7 828 49 775 -7 b 525 149 578 -7 525 49 l 525 196 b 585 325 525 256 542 301 b 525 449 544 347 525 389 l 525 468 b 676 624 525 568 578 624 b 828 468 775 624 828 568 l 828 449 b 768 325 828 389 808 347 b 828 196 811 301 828 256 m 622 431 b 676 365 622 382 644 365 b 731 431 708 365 731 382 l 731 465 b 676 536 731 521 708 536 b 622 465 644 536 622 521 m 622 150 b 676 81 622 96 644 81 b 731 150 708 81 731 96 l 731 208 b 676 278 731 254 713 278 b 622 208 640 278 622 254 "},"⅝":{"ha":871,"x_min":0,"x_max":0,"o":"m 582 972 l 672 972 l 289 0 l 199 0 m 143 553 l 143 496 b 193 436 143 451 161 436 b 243 496 225 436 243 451 l 243 631 b 193 692 243 675 225 692 b 143 631 161 692 143 675 l 143 613 l 51 613 l 69 971 l 325 971 l 325 882 l 156 882 l 149 735 b 233 781 167 765 194 781 b 340 639 304 781 340 729 l 340 501 b 196 346 340 401 292 346 b 51 501 100 346 51 401 l 51 553 m 828 149 b 676 -7 828 49 775 -7 b 525 149 578 -7 525 49 l 525 196 b 585 325 525 256 542 301 b 525 449 544 347 525 389 l 525 468 b 676 624 525 568 578 624 b 828 468 775 624 828 568 l 828 449 b 768 325 828 389 808 347 b 828 196 811 301 828 256 m 622 431 b 676 365 622 382 644 365 b 731 431 708 365 731 382 l 731 465 b 676 536 731 521 708 536 b 622 465 644 536 622 521 m 622 150 b 676 81 622 96 644 81 b 731 150 708 81 731 96 l 731 208 b 676 278 731 254 713 278 b 622 208 640 278 622 254 "},"⅞":{"ha":871,"x_min":0,"x_max":0,"o":"m 340 972 l 340 888 l 197 356 l 100 356 l 242 885 l 49 885 l 49 972 m 540 972 l 631 972 l 247 0 l 157 0 m 828 149 b 676 -7 828 49 775 -7 b 525 149 578 -7 525 49 l 525 196 b 585 325 525 256 542 301 b 525 449 544 347 525 389 l 525 468 b 676 624 525 568 578 624 b 828 468 775 624 828 568 l 828 449 b 768 325 828 389 808 347 b 828 196 811 301 828 256 m 622 431 b 676 365 622 382 644 365 b 731 431 708 365 731 382 l 731 465 b 676 536 731 521 708 536 b 622 465 644 536 622 521 m 622 150 b 676 81 622 96 644 81 b 731 150 708 81 731 96 l 731 208 b 676 278 731 254 713 278 b 622 208 640 278 622 254 "},"−":{"ha":550,"x_min":0,"x_max":0,"o":"m 515 540 l 515 432 l 35 432 l 35 540 "},"∞":{"ha":1018,"x_min":0,"x_max":0,"o":"m 1018 199 b 926 350 1001 238 964 299 b 829 444 888 401 850 444 b 833 376 831 424 833 404 b 813 199 833 310 824 260 l 754 199 b 776 475 765 271 776 369 b 719 778 776 582 763 693 b 481 918 675 861 601 918 b 272 782 376 918 311 864 b 217 490 232 700 217 594 b 257 199 217 372 236 261 l 192 199 b 165 454 168 282 165 365 b 76 336 139 439 107 390 b 33 258 61 310 46 283 b 0 199 19 232 8 213 l 0 404 b 81 519 17 447 49 486 b 125 563 96 535 111 550 b 157 593 139 575 150 585 b 239 863 161 688 188 786 b 467 992 290 939 365 992 b 733 874 596 992 681 944 b 824 604 786 801 811 704 b 914 543 840 600 875 578 b 1018 404 951 508 992 460 m 479 440 b 447 458 464 440 456 450 b 436 469 443 463 439 465 b 426 475 432 474 429 475 b 411 472 422 475 417 474 b 392 469 406 471 399 469 b 363 504 376 469 363 489 b 374 553 363 521 367 542 b 351 501 361 540 357 521 b 317 444 346 482 338 460 b 290 389 290 429 290 410 b 306 361 290 382 296 371 b 321 342 310 356 314 349 b 317 336 321 338 319 336 b 300 343 311 336 301 342 b 367 199 311 286 333 233 l 290 199 b 258 336 279 232 268 281 b 242 513 249 392 242 453 b 292 742 242 597 254 681 b 486 843 329 803 390 843 b 699 733 592 843 658 800 b 750 490 738 667 750 579 b 715 199 750 381 731 275 l 614 199 b 700 361 665 244 690 299 b 682 350 699 357 688 350 b 678 353 679 350 678 351 l 678 354 l 681 357 b 703 404 696 367 699 369 b 682 396 699 399 686 396 b 668 390 679 396 675 394 b 646 383 661 386 653 383 b 590 389 619 383 608 386 b 556 392 581 390 569 390 b 493 393 540 393 519 393 b 421 385 467 393 442 390 b 367 376 399 379 381 376 b 349 379 360 376 354 378 b 333 382 343 381 338 382 b 294 399 324 382 294 386 b 310 413 294 403 300 408 b 396 433 329 422 358 428 b 449 436 414 435 432 436 l 465 436 b 482 435 469 435 475 435 b 504 438 489 435 497 436 b 524 440 511 439 517 440 b 643 433 571 440 611 438 b 700 413 675 428 693 421 b 639 471 699 440 671 471 b 631 481 633 471 631 474 l 631 514 b 608 561 631 531 626 560 b 614 538 613 554 614 547 b 561 474 614 506 593 474 b 547 476 557 474 551 475 l 538 479 b 531 474 536 479 533 478 b 501 447 524 465 513 456 b 479 440 494 443 488 440 m 479 699 b 475 707 476 701 475 704 b 478 710 475 708 476 710 b 494 699 479 710 485 706 b 538 686 504 690 518 686 b 593 699 563 686 581 690 b 614 710 606 706 613 710 b 619 707 618 710 619 708 b 615 701 619 706 618 703 b 608 696 611 699 610 697 b 681 681 625 696 654 690 b 488 792 654 749 604 792 b 290 628 381 792 313 718 b 347 682 314 640 343 661 b 339 692 342 686 339 689 b 343 697 339 696 340 697 b 361 686 344 697 350 693 b 411 675 372 679 389 675 b 479 699 433 675 458 683 m 582 646 b 560 664 567 646 561 657 b 543 643 549 664 543 649 b 607 610 543 622 581 610 b 668 651 631 610 668 625 b 608 675 668 667 631 675 b 582 646 604 663 599 646 m 579 657 b 592 671 588 657 592 661 l 592 675 b 581 672 588 675 585 674 b 569 667 576 671 574 668 b 579 657 569 660 572 657 m 700 601 b 692 646 699 618 696 633 l 685 650 b 603 590 685 607 640 590 b 529 649 564 590 529 617 b 531 656 529 650 529 653 b 532 661 532 657 532 660 l 521 664 b 511 667 517 664 514 665 b 529 617 522 651 525 632 l 533 596 b 539 588 535 590 536 588 b 551 590 543 589 547 590 l 560 590 b 603 571 578 590 592 583 b 643 543 624 571 636 558 b 650 500 649 526 650 510 b 657 493 650 497 653 494 b 693 467 667 488 681 479 b 708 442 700 460 704 451 b 707 497 708 461 708 479 b 704 551 706 515 706 533 m 369 647 b 383 660 376 647 381 651 b 368 665 378 661 372 663 b 360 651 368 661 365 657 b 369 647 361 649 364 647 m 371 574 b 307 617 333 574 311 596 l 296 613 b 286 610 292 611 289 611 b 281 550 281 588 281 568 b 285 442 281 513 281 481 b 301 461 289 449 294 456 b 335 493 314 471 326 481 b 343 515 339 499 342 506 b 396 572 347 547 363 568 b 428 579 407 576 418 579 b 438 588 432 579 435 582 l 444 607 b 475 664 450 622 458 643 l 457 658 b 371 574 456 615 421 574 m 515 597 b 510 636 515 604 514 622 b 504 654 508 643 506 649 b 496 661 501 658 499 661 b 469 607 483 661 475 635 b 460 569 465 593 463 581 b 450 553 457 558 454 553 b 438 557 446 553 442 554 b 421 561 433 560 428 561 b 381 513 394 561 381 539 b 396 493 381 501 386 494 b 421 503 408 493 417 496 b 433 511 425 508 429 511 b 440 506 435 511 438 510 b 450 493 443 501 446 497 b 478 474 456 482 465 474 b 513 489 494 474 506 482 b 522 499 517 492 519 494 b 529 503 524 501 526 503 b 543 499 533 503 539 501 b 556 493 547 494 551 493 b 592 542 576 493 592 518 b 561 578 592 558 582 578 b 542 569 551 578 546 575 b 525 560 538 563 532 560 b 515 578 515 560 515 571 m 371 593 b 435 642 397 593 435 615 b 433 654 435 647 435 651 l 421 654 l 408 654 b 396 656 404 654 400 654 b 371 636 392 643 383 636 b 350 643 364 636 357 636 b 339 635 346 639 343 636 l 325 626 b 371 593 329 604 350 593 m 525 431 b 511 428 521 429 517 429 b 481 425 500 426 488 425 b 463 428 474 425 468 426 b 447 429 457 429 451 429 b 371 418 425 429 394 424 b 342 408 358 414 349 411 b 329 400 333 404 329 401 b 357 386 329 385 347 386 b 432 396 389 386 411 390 b 493 404 453 400 471 404 b 572 400 518 404 544 403 b 646 394 600 396 625 394 b 665 400 653 394 660 396 b 674 407 671 403 674 406 b 660 415 674 410 669 413 b 578 429 640 421 611 426 b 532 431 561 431 546 431 m 369 400 b 367 404 368 400 367 401 b 386 413 367 407 374 410 b 478 421 411 417 444 419 l 515 421 b 590 418 528 421 561 419 b 629 415 606 417 618 417 b 644 410 639 414 644 411 b 640 406 644 407 643 406 b 518 413 601 411 561 413 b 369 400 467 413 418 410 m 424 364 b 435 371 424 367 428 369 b 490 378 450 375 471 376 l 511 378 b 518 378 511 378 514 378 b 549 374 528 378 540 376 b 554 367 553 372 554 369 b 551 363 554 364 553 363 b 538 365 546 363 542 364 b 524 368 533 367 529 368 l 488 368 b 460 367 476 367 467 367 b 444 363 454 367 449 365 b 429 358 439 360 433 358 b 424 364 425 358 424 360 m 90 31 b 61 0 89 10 79 0 l 10 0 l 26 174 l 78 174 b 103 144 96 174 104 164 m 160 32 l 142 32 l 138 0 l 106 0 l 126 174 l 156 174 l 143 58 l 161 58 l 174 174 l 206 174 l 186 0 l 156 0 m 258 32 l 239 32 l 235 0 l 206 0 l 221 144 b 251 174 222 165 235 174 l 275 174 b 300 144 293 174 301 164 l 285 0 l 253 0 m 389 61 b 375 38 388 50 383 42 l 386 0 l 357 0 l 347 32 l 339 32 l 335 0 l 303 0 l 321 174 l 372 174 b 397 144 390 174 399 164 m 442 114 l 431 0 l 401 0 l 421 174 l 456 174 l 463 90 l 489 174 l 525 174 l 507 0 l 478 0 l 489 114 l 468 47 l 449 47 m 579 32 l 561 32 l 557 0 l 525 0 l 540 144 b 574 174 542 165 557 174 l 594 174 b 622 144 611 174 624 165 l 604 0 l 575 0 m 692 0 l 660 0 l 675 147 l 657 147 l 660 174 l 728 174 l 725 147 l 707 147 m 772 174 l 760 64 b 765 58 760 60 761 58 l 772 58 b 779 64 776 58 779 60 l 790 174 l 819 174 l 808 61 b 782 32 807 43 797 33 l 769 0 l 738 0 l 750 32 b 729 61 735 33 728 43 l 740 174 m 840 174 l 889 174 b 917 144 908 174 918 164 l 908 61 b 875 32 907 40 892 32 l 856 32 l 851 0 l 819 0 m 985 54 l 954 54 l 951 25 l 990 25 l 988 0 l 919 0 l 938 174 l 1006 174 l 1003 147 l 964 147 l 957 79 l 988 79 m 72 142 b 68 147 74 146 72 147 l 56 147 l 42 25 l 57 25 b 61 31 60 25 61 26 m 260 58 l 269 142 b 265 147 269 146 268 147 l 257 147 b 249 142 251 147 249 146 l 240 58 m 367 142 b 363 147 367 146 365 147 l 350 147 l 340 58 l 353 58 b 360 64 357 58 360 60 m 581 58 l 589 142 b 585 147 589 146 588 147 l 578 147 b 571 142 574 147 571 146 l 563 58 m 883 142 b 879 147 885 146 883 147 l 867 147 l 857 58 l 869 58 b 876 64 874 58 876 60 "},"≈":{"ha":550,"x_min":0,"x_max":0,"o":"m 11 576 b 99 676 44 626 72 657 b 176 701 125 696 150 701 b 282 660 214 701 249 681 b 375 617 315 638 346 617 b 417 635 390 617 404 622 b 467 696 429 646 446 667 l 539 621 b 374 501 472 522 425 501 b 268 544 336 501 301 522 b 175 586 235 565 204 586 b 133 569 160 586 146 581 b 83 507 121 557 104 536 m 11 346 b 99 446 44 396 72 426 b 176 471 125 465 150 471 b 282 429 214 471 249 450 b 375 386 315 407 346 386 b 417 404 390 386 404 392 b 467 465 429 415 446 436 l 539 390 b 374 271 472 292 425 271 b 268 314 336 271 301 292 b 175 356 235 335 204 356 b 133 339 160 356 146 350 b 83 276 121 326 104 306 "},"̦":{"ha":0,"x_min":0,"x_max":0,"o":"m -237 -174 l -237 -46 l -110 -46 l -110 -160 l -169 -249 l -224 -249 l -187 -174 "},"\"":{"ha":451,"x_min":0,"x_max":0,"o":"m 56 972 l 203 972 l 181 686 l 76 686 m 249 972 l 396 972 l 374 686 l 269 686 "},"!":{"ha":264,"x_min":0,"x_max":0,"o":"m 75 215 l 56 567 l 56 972 l 208 972 l 208 567 l 189 215 m 206 147 l 206 0 l 58 0 l 58 147 "},"Ģ":{"ha":542,"x_min":0,"x_max":0,"o":"m 285 542 l 499 542 l 499 233 b 271 -11 499 76 421 -11 b 43 233 121 -11 43 76 l 43 739 b 271 983 43 896 121 983 b 499 739 421 983 499 896 l 499 644 l 354 644 l 354 749 b 275 844 354 819 324 844 b 196 749 226 844 196 819 l 196 224 b 275 129 196 153 226 129 b 354 224 324 129 354 153 l 354 403 l 285 403 m 207 -174 l 207 -46 l 335 -46 l 335 -160 l 275 -249 l 221 -249 l 257 -174 "},"Ķ":{"ha":575,"x_min":0,"x_max":0,"o":"m 256 388 l 208 299 l 208 0 l 56 0 l 56 972 l 208 972 l 208 549 l 408 972 l 561 972 l 349 539 l 561 0 l 404 0 m 235 -174 l 235 -46 l 363 -46 l 363 -160 l 303 -249 l 249 -249 l 285 -174 "},"Ļ":{"ha":471,"x_min":0,"x_max":0,"o":"m 56 972 l 208 972 l 208 139 l 460 139 l 460 0 l 56 0 m 194 -174 l 194 -46 l 322 -46 l 322 -160 l 263 -249 l 208 -249 l 244 -174 "},"Ņ":{"ha":593,"x_min":0,"x_max":0,"o":"m 192 704 l 192 0 l 54 0 l 54 972 l 246 972 l 403 390 l 403 972 l 539 972 l 539 0 l 382 0 m 232 -174 l 232 -46 l 360 -46 l 360 -160 l 300 -249 l 246 -249 l 282 -174 "},"Ŋ":{"ha":593,"x_min":0,"x_max":0,"o":"m 539 972 l 539 -17 b 472 -211 539 -115 513 -175 b 319 -261 432 -247 376 -261 l 282 -261 b 246 -258 271 -261 258 -260 l 246 -119 b 272 -121 254 -121 263 -121 l 299 -121 b 386 -28 347 -121 386 -104 l 386 6 l 192 704 l 192 0 l 54 0 l 54 972 l 246 972 l 403 390 l 403 972 "},"Ŗ":{"ha":558,"x_min":0,"x_max":0,"o":"m 375 0 b 369 18 374 7 371 13 b 363 71 365 29 363 44 b 361 119 361 83 361 100 l 361 272 b 261 396 361 363 332 396 l 208 396 l 208 0 l 56 0 l 56 972 l 286 972 b 513 749 446 972 513 899 l 513 672 b 413 475 513 572 479 507 b 514 268 490 443 514 369 l 514 118 b 531 0 514 69 515 38 m 208 833 l 208 535 l 268 535 b 360 638 325 535 360 560 l 360 733 b 282 833 360 804 336 833 m 218 -174 l 218 -46 l 346 -46 l 346 -160 l 286 -249 l 232 -249 l 268 -174 "},"Ș":{"ha":519,"x_min":0,"x_max":0,"o":"m 36 739 b 261 983 36 896 111 983 b 486 739 411 983 486 896 l 486 708 l 342 708 l 342 749 b 265 844 342 819 314 844 b 189 749 217 844 189 819 b 267 589 189 682 222 633 b 339 521 289 565 313 543 b 465 354 389 475 436 422 b 488 233 481 319 488 279 b 260 -11 488 76 410 -11 b 32 233 110 -11 32 76 l 32 293 l 176 293 l 176 224 b 256 129 176 153 207 129 b 335 224 304 129 335 153 b 257 385 335 290 301 339 b 186 453 235 407 211 429 b 58 618 135 497 88 550 b 36 739 43 653 36 693 m 192 -174 l 192 -46 l 319 -46 l 319 -160 l 260 -249 l 206 -249 l 242 -174 "},"Ţ":{"ha":494,"x_min":0,"x_max":0,"o":"m 122 -137 l 211 -137 l 211 -151 b 240 -176 211 -172 225 -176 b 276 -140 264 -176 276 -164 b 226 -101 276 -114 260 -101 l 211 -101 l 211 0 l 171 0 l 171 833 l 11 833 l 11 972 l 483 972 l 483 833 l 324 833 l 324 0 l 281 0 l 281 -54 b 368 -133 335 -54 368 -85 b 242 -247 368 -217 310 -247 b 122 -151 179 -247 122 -217 "},"Ț":{"ha":494,"x_min":0,"x_max":0,"o":"m 11 972 l 483 972 l 483 833 l 324 833 l 324 0 l 171 0 l 171 833 l 11 833 m 183 -174 l 183 -46 l 311 -46 l 311 -160 l 251 -249 l 197 -249 l 233 -174 "},"ģ":{"ha":542,"x_min":0,"x_max":0,"o":"m 285 542 l 499 542 l 499 233 b 271 -11 499 76 421 -11 b 43 233 121 -11 43 76 l 43 739 b 271 983 43 896 121 983 b 499 739 421 983 499 896 l 499 644 l 354 644 l 354 749 b 275 844 354 819 324 844 b 196 749 226 844 196 819 l 196 224 b 275 129 196 153 226 129 b 354 224 324 129 354 153 l 354 403 l 285 403 m 207 -174 l 207 -46 l 335 -46 l 335 -160 l 275 -249 l 221 -249 l 257 -174 "},"ķ":{"ha":575,"x_min":0,"x_max":0,"o":"m 256 388 l 208 299 l 208 0 l 56 0 l 56 972 l 208 972 l 208 549 l 408 972 l 561 972 l 349 539 l 561 0 l 404 0 m 235 -174 l 235 -46 l 363 -46 l 363 -160 l 303 -249 l 249 -249 l 285 -174 "},"ļ":{"ha":471,"x_min":0,"x_max":0,"o":"m 56 972 l 208 972 l 208 139 l 460 139 l 460 0 l 56 0 m 194 -174 l 194 -46 l 322 -46 l 322 -160 l 263 -249 l 208 -249 l 244 -174 "},"ņ":{"ha":593,"x_min":0,"x_max":0,"o":"m 192 704 l 192 0 l 54 0 l 54 972 l 246 972 l 403 390 l 403 972 l 539 972 l 539 0 l 382 0 m 232 -174 l 232 -46 l 360 -46 l 360 -160 l 300 -249 l 246 -249 l 282 -174 "},"ŋ":{"ha":593,"x_min":0,"x_max":0,"o":"m 539 972 l 539 -17 b 472 -211 539 -115 513 -175 b 319 -261 432 -247 376 -261 l 282 -261 b 246 -258 271 -261 258 -260 l 246 -119 b 272 -121 254 -121 263 -121 l 299 -121 b 386 -28 347 -121 386 -104 l 386 6 l 192 704 l 192 0 l 54 0 l 54 972 l 246 972 l 403 390 l 403 972 "},"ŗ":{"ha":558,"x_min":0,"x_max":0,"o":"m 375 0 b 369 18 374 7 371 13 b 363 71 365 29 363 44 b 361 119 361 83 361 100 l 361 272 b 261 396 361 363 332 396 l 208 396 l 208 0 l 56 0 l 56 972 l 286 972 b 513 749 446 972 513 899 l 513 672 b 413 475 513 572 479 507 b 514 268 490 443 514 369 l 514 118 b 531 0 514 69 515 38 m 208 833 l 208 535 l 268 535 b 360 638 325 535 360 560 l 360 733 b 282 833 360 804 336 833 m 218 -174 l 218 -46 l 346 -46 l 346 -160 l 286 -249 l 232 -249 l 268 -174 "},"ș":{"ha":519,"x_min":0,"x_max":0,"o":"m 36 739 b 261 983 36 896 111 983 b 486 739 411 983 486 896 l 486 708 l 342 708 l 342 749 b 265 844 342 819 314 844 b 189 749 217 844 189 819 b 267 589 189 682 222 633 b 339 521 289 565 313 543 b 465 354 389 475 436 422 b 488 233 481 319 488 279 b 260 -11 488 76 410 -11 b 32 233 110 -11 32 76 l 32 293 l 176 293 l 176 224 b 256 129 176 153 207 129 b 335 224 304 129 335 153 b 257 385 335 290 301 339 b 186 453 235 407 211 429 b 58 618 135 497 88 550 b 36 739 43 653 36 693 m 192 -174 l 192 -46 l 319 -46 l 319 -160 l 260 -249 l 206 -249 l 242 -174 "},"ţ":{"ha":494,"x_min":0,"x_max":0,"o":"m 122 -137 l 211 -137 l 211 -151 b 240 -176 211 -172 225 -176 b 276 -140 264 -176 276 -164 b 226 -101 276 -114 260 -101 l 211 -101 l 211 0 l 171 0 l 171 833 l 11 833 l 11 972 l 483 972 l 483 833 l 324 833 l 324 0 l 281 0 l 281 -54 b 368 -133 335 -54 368 -85 b 242 -247 368 -217 310 -247 b 122 -151 179 -247 122 -217 "},"ț":{"ha":494,"x_min":0,"x_max":0,"o":"m 11 972 l 483 972 l 483 833 l 324 833 l 324 0 l 171 0 l 171 833 l 11 833 m 183 -174 l 183 -46 l 311 -46 l 311 -160 l 251 -249 l 197 -249 l 233 -174 "},"̈":{"ha":0,"x_min":0,"x_max":0,"o":"m -212 1157 l -212 1024 l -346 1024 l -346 1157 m -1 1157 l -1 1024 l -135 1024 l -135 1157 "},"̇":{"ha":0,"x_min":0,"x_max":0,"o":"m -107 1157 l -107 1024 l -240 1024 l -240 1157 "},"̀":{"ha":0,"x_min":0,"x_max":0,"o":"m -129 1178 l -35 1024 l -144 1024 l -286 1178 "},"́":{"ha":0,"x_min":0,"x_max":0,"o":"m -65 1178 l -207 1024 l -310 1024 l -215 1178 "},"̋":{"ha":0,"x_min":0,"x_max":0,"o":"m -174 1178 l -289 1024 l -382 1024 l -312 1178 m 8 1178 l -108 1024 l -200 1024 l -132 1178 "},"̂":{"ha":0,"x_min":0,"x_max":0,"o":"m -365 1024 l -242 1178 l -104 1178 l 19 1024 l -111 1024 l -174 1100 l -235 1024 "},"̌":{"ha":0,"x_min":0,"x_max":0,"o":"m -235 1178 l -174 1100 l -111 1178 l 19 1178 l -104 1024 l -242 1024 l -365 1178 "},"̆":{"ha":0,"x_min":0,"x_max":0,"o":"m -18 1178 b -175 1018 -18 1079 -69 1018 b -329 1178 -281 1018 -328 1079 l -239 1178 b -175 1113 -235 1124 -214 1113 b -108 1178 -135 1113 -112 1124 "},"̊":{"ha":0,"x_min":0,"x_max":0,"o":"m -285 1131 b -174 1242 -285 1193 -236 1242 b -62 1131 -111 1242 -62 1193 b -174 1019 -62 1068 -111 1019 b -285 1131 -236 1019 -285 1068 m -215 1131 b -174 1089 -215 1107 -197 1089 b -132 1131 -150 1089 -132 1107 b -174 1172 -132 1154 -150 1172 b -215 1131 -197 1172 -215 1154 "},"̃":{"ha":0,"x_min":0,"x_max":0,"o":"m -118 1129 b -58 1169 -92 1129 -75 1135 l 15 1118 b -103 1024 -11 1047 -54 1024 b -171 1042 -132 1024 -151 1033 b -228 1058 -190 1050 -207 1058 b -287 1018 -254 1058 -271 1053 l -361 1069 b -243 1164 -335 1140 -292 1164 b -174 1147 -214 1164 -193 1156 b -118 1129 -154 1139 -139 1129 "},"̄":{"ha":0,"x_min":0,"x_max":0,"o":"m -14 1138 l -14 1029 l -333 1029 l -333 1138 "},"̧":{"ha":0,"x_min":0,"x_max":0,"o":"m -311 -110 l -208 -110 l -208 -121 b -178 -149 -208 -142 -193 -149 b -143 -115 -154 -149 -143 -137 b -193 -79 -143 -92 -160 -79 l -207 -79 l -207 19 l -140 19 l -140 -54 b -37 -119 -72 -54 -37 -71 b -76 -189 -37 -157 -51 -178 b -178 -204 -101 -201 -137 -204 b -311 -124 -254 -204 -311 -189 "},"̨":{"ha":0,"x_min":0,"x_max":0,"o":"m -117 6 b -165 -81 -157 -26 -165 -60 b -117 -119 -165 -107 -143 -119 b -86 -117 -103 -119 -93 -118 b -67 -111 -81 -115 -74 -112 l -67 -189 b -161 -204 -99 -201 -122 -204 b -282 -118 -235 -204 -282 -175 b -176 6 -282 -69 -247 -28 "},"̵":{"ha":0,"x_min":0,"x_max":0,"o":"m -303 549 l -6 549 l -6 424 l -303 424 "},"̶":{"ha":0,"x_min":0,"x_max":0,"o":"m -593 811 l -14 811 l -14 697 l -593 697 "},"̷":{"ha":0,"x_min":0,"x_max":0,"o":"m -389 271 l 0 688 l 0 549 l -389 132 "},"̸":{"ha":0,"x_min":0,"x_max":0,"o":"m -493 -33 l -108 1024 l -57 1006 l -442 -51 "}}}
